<?xml version="1.0" encoding="UTF-8" standalone="no"?>
<!-- Created with Inkscape (http://www.inkscape.org/) -->

<svg
   xmlns:dc="http://purl.org/dc/elements/1.1/"
   xmlns:cc="http://creativecommons.org/ns#"
   xmlns:rdf="http://www.w3.org/1999/02/22-rdf-syntax-ns#"
   xmlns:svg="http://www.w3.org/2000/svg"
   xmlns="http://www.w3.org/2000/svg"
   xmlns:sodipodi="http://sodipodi.sourceforge.net/DTD/sodipodi-0.dtd"
   xmlns:inkscape="http://www.inkscape.org/namespaces/inkscape"
   width="647.05798"
   height="500"
   id="svg3116"
   version="1.1"
   inkscape:version="0.92.1 r15371"
   sodipodi:docname="8_amigos jugano ajedrez_By_DG-RA.svg"
   viewBox="0 0 606.61686 468.75">
  <defs
     id="defs3118" />
  <sodipodi:namedview
     id="base"
     pagecolor="#ffffff"
     bordercolor="#666666"
     borderopacity="1.0"
     inkscape:pageopacity="0.0"
     inkscape:pageshadow="2"
     inkscape:zoom="0.85154656"
     inkscape:cx="284.40798"
     inkscape:cy="272.99349"
     inkscape:document-units="in"
     inkscape:current-layer="layer1"
     showgrid="false"
     inkscape:window-width="1280"
     inkscape:window-height="748"
     inkscape:window-x="-8"
     inkscape:window-y="-8"
     inkscape:window-maximized="1"
     inkscape:snap-global="false"
     showguides="true"
     inkscape:guide-bbox="true" />
  <metadata
     id="metadata3121">
    <rdf:RDF>
      <cc:Work
         rdf:about="">
        <dc:format>image/svg+xml</dc:format>
        <dc:type
           rdf:resource="http://purl.org/dc/dcmitype/StillImage" />
        <dc:title></dc:title>
      </cc:Work>
    </rdf:RDF>
  </metadata>
  <g
     inkscape:groupmode="layer"
     id="layer3"
     inkscape:label="FONDO"
     sodipodi:insensitive="true">
    <path
       style="opacity:1;vector-effect:none;fill:#ffffff;fill-opacity:1;fill-rule:evenodd;stroke:none;stroke-width:1.84584618;stroke-linecap:butt;stroke-linejoin:miter;stroke-miterlimit:4;stroke-dasharray:none;stroke-dashoffset:0;stroke-opacity:1;paint-order:normal"
       d="M 606.61688,2.6089479e-6 V 468.75 H -1.7640991e-5 V 2.6089479e-6 Z"
       id="rect4763"
       inkscape:connector-curvature="0" />
  </g>
  <g
     inkscape:label="Capa 1"
     inkscape:groupmode="layer"
     id="layer1"
     transform="translate(0,-583.61218)">
    <path
       style="fill:#000000;stroke-width:1.11054456"
       d="m 21.664233,1038.5313 c -0.553504,-1.4559 -2.588157,-7.5778 -4.521452,-13.6042 -1.933293,-6.0265 -4.972202,-15.4548 -6.753175,-20.952 -1.78097,-5.49733 -3.232158,-11.07333 -3.224853,-12.39113 0.0084,-1.318 -1.344785,-5.0139 -3.004577,-8.2131 -3.949985,-7.6134 -4.286905,-17.3184 -0.736884,-21.2268 1.516497,-1.6695 2.595421,-4.7627 3.034295,-8.6989 0.638457,-5.726 3.075263,-9.619 5.199322,-8.3063 0.840809,0.5196 6.626538,-16.7685 6.626538,-19.8006 0,-3.068 13.613716,-29.95182 17.215701,-33.99687 1.946008,-2.18552 3.990949,-4.80512 4.544327,-5.82151 0.553375,-1.01639 5.753707,-6.78824 11.556308,-12.82621 9.147545,-9.51873 11.48147,-11.32436 17.555178,-13.58143 3.852778,-1.43176 10.202376,-4.9052 14.110217,-7.71884 3.907849,-2.81365 10.579725,-7.61442 14.826411,-10.66842 5.859901,-4.2141 8.006411,-6.49732 8.904441,-9.47116 1.73459,-5.74443 7.76977,-11.11823 13.32317,-11.86305 4.1811,-0.56085 4.57653,-0.89513 4.57653,-3.86891 0,-2.92905 -0.72057,-3.58178 -7.19415,-6.51707 -3.95682,-1.79405 -7.82983,-3.29552 -8.60676,-3.33649 -0.77689,-0.0421 -6.65987,-3.66421 -13.073263,-8.05156 -9.569383,-6.54632 -12.116533,-8.89516 -14.202274,-13.09638 -2.773686,-5.58696 -3.612556,-14.69861 -2.141978,-23.26521 0.736503,-4.29034 0.519043,-5.46704 -1.424447,-7.70793 -1.870344,-2.1565 -2.161211,-3.52796 -1.576024,-7.43034 0.48064,-3.20501 0.309346,-4.78563 -0.518992,-4.78563 -3.58201,0 2.308823,-13.54677 9.831789,-22.60947 2.463544,-2.96783 4.47918,-5.98348 4.47918,-6.70145 0,-0.71802 -1.501763,-2.19259 -3.33729,-3.27687 -10.335726,-6.10543 -8.409912,-25.01728 4.119763,-40.45693 4.114143,-5.06964 10.745846,-9.02093 13.932246,-8.30121 1.46118,0.32992 1.94346,-0.27022 1.94346,-2.41877 0,-1.57175 -0.49974,-2.85781 -1.11054,-2.85781 -2.11964,0 -1.08992,-4.29659 2.77637,-11.58444 2.13779,-4.02967 3.8869,-7.52345 3.8869,-7.76391 0,-0.24063 -2.50216,0.36305 -5.56042,1.34091 -4.10369,1.31228 -5.88618,1.45232 -6.80404,0.53449 -2.144757,-2.14477 -0.0549,-6.65447 4.31116,-9.30309 2.29154,-1.39016 6.66512,-4.89403 9.71914,-7.78642 19.35894,-18.33439 25.40435,-22.03705 40.22267,-24.63525 7.67252,-1.34533 8.84529,-0.93391 7.02637,2.46484 -1.53038,2.85952 -1.35493,2.8613 10.15126,0.10281 5.0778,-1.21731 11.73108,-2.20396 14.78507,-2.19255 6.36697,0.0261 23.58518,3.67014 25.26566,5.35065 2.13843,2.1384 -0.10152,4.32918 -5.20903,5.09517 -6.85682,1.0282 -5.54967,2.41475 3.15543,3.34699 3.927,0.42053 10.05583,1.50142 13.61957,2.40194 3.56379,0.90047 8.4041,2.12844 10.75637,2.7288 4.03995,1.03113 14.32809,5.36193 22.91846,9.64752 4.57827,2.28406 5.90244,5.81953 2.17963,5.81953 -2.08723,0 -2.23059,0.25056 -0.99522,1.73905 0.79383,0.95643 2.97894,2.5127 4.85582,3.45841 4.35898,2.19624 9.61048,7.08501 8.8801,8.26681 -0.30897,0.49963 -3.03962,1.23713 -6.06852,1.63896 -5.98611,0.79408 -6.22875,1.06306 -3.82485,4.24002 1.43521,1.89679 1.38308,2.2898 -0.47692,3.59256 -1.64371,1.15127 -3.46572,1.20817 -8.55675,0.26707 -4.71492,-0.87159 -7.60396,-0.85557 -10.65729,0.0592 -2.60165,0.77952 -4.92789,0.8754 -6.13898,0.25342 -1.07254,-0.55106 -4.75696,-1.27686 -8.18768,-1.6129 l -6.23755,-0.61102 -2.49746,9.06652 c -1.37356,4.98654 -2.75386,13.09098 -3.0673,18.00986 l -0.56986,8.94339 4.32876,1.29691 c 6.10328,1.82857 9.08693,4.17951 7.43373,5.8573 -0.99545,1.01025 -1.88664,0.89917 -3.85639,-0.48049 -4.82688,-3.38088 -6.12645,-2.43407 -6.90684,5.03185 -1.36604,13.06982 -1.40882,12.94158 4.56161,13.67927 16.55713,2.04574 23.28651,5.71912 27.46923,14.99471 4.22361,9.36636 -1.32593,14.40724 -17.0458,15.4835 l -9.59049,0.65663 0.40757,11.90295 c 0.44859,13.10227 0.55068,12.90648 -7.62611,14.62443 l -2.77635,0.58339 v 15.31879 c 0,19.20465 -1.88215,26.3775 -8.71402,33.20939 -5.02324,5.02324 -9.54251,6.76236 -20.35674,7.83363 -4.90781,0.48624 -8.06794,0.19705 -11.10542,-1.01732 -2.33511,-0.9333 -6.7345,-1.87673 -9.77648,-2.09651 -5.16166,-0.37273 -5.6332,-0.18687 -7.06407,2.78506 -0.84328,1.75155 -1.79616,5.14461 -2.11746,7.54015 -0.45966,3.42686 -0.13725,4.68215 1.51137,5.88719 1.72901,1.26376 2.16347,3.29582 2.48373,11.61674 0.285,7.40278 0.77697,10.08512 1.85014,10.08512 0.80409,0 3.01646,1.96273 4.91642,4.3616 4.72452,5.96522 11.85969,8.71511 17.65252,6.80333 3.52374,-1.16306 4.85812,-1.10127 8.42699,0.38984 2.33215,0.97447 5.02647,1.77182 5.98733,1.77182 0.96089,0 3.13201,1.32676 4.82466,2.94842 l 3.07762,2.94855 4.75695,-3.12657 c 8.21135,-5.39697 36.40746,-33.63119 36.40746,-36.45653 0,-0.82891 0.9995,-2.41165 2.22109,-3.51721 1.90871,-1.72735 2.22111,-3.42043 2.22111,-12.03749 0,-7.73025 0.50473,-11.06999 2.20303,-14.57824 2.62445,-5.4214 10.45231,-11.67119 19.53988,-15.60065 3.6168,-1.56392 8.42409,-3.82431 10.68291,-5.02317 6.35348,-3.37202 9.87953,-2.77258 16.61272,2.82438 1.62298,1.34908 5.08045,2.79347 7.68328,3.20964 3.37068,0.53904 5.77545,1.86274 8.35755,4.6006 1.99394,2.1141 4.2459,3.84392 5.00455,3.84392 0.75856,0 5.08163,-1.27794 9.60692,-2.83986 4.5252,-1.56188 9.81008,-2.68631 11.74421,-2.49872 3.21021,0.31143 3.5472,0.71484 3.86873,4.6323 0.61475,7.48935 -6.25716,11.89726 -21.22146,13.61234 -4.66797,0.53496 -7.52747,1.60755 -10.42529,3.91045 -2.19615,1.74529 -4.67394,3.17327 -5.50612,3.17327 -1.04529,0 -1.51313,1.49391 -1.51313,4.83173 0,2.65744 -0.54812,6.40403 -1.21802,8.32574 -2.56325,7.35302 7.4886,17.83916 17.17152,17.91334 4.72846,0.0379 11.81012,8.09391 11.81012,13.43764 0,10.59051 -18.53467,25.50588 -28.09586,22.60931 -3.06736,-0.92919 -7.4416,-4.86549 -7.4416,-6.69665 0,-0.76032 -0.84906,-2.86173 -1.88685,-4.67005 -1.76502,-3.07536 -1.76765,-3.59111 -0.0421,-7.98742 1.7817,-4.53577 1.75178,-5.02571 -0.8571,-14.02834 -3.58599,-12.37463 -4.4043,-13.74553 -8.20479,-13.74553 -1.72565,0 -4.97867,-1.24938 -7.22882,-2.77635 -5.76666,-3.91335 -8.0883,-3.60335 -10.39613,1.3882 -1.05898,2.29048 -2.35059,4.47494 -2.8702,4.85441 -0.51956,0.37945 -2.03801,3.37998 -3.37429,6.66784 -4.08757,10.05716 -23.64069,40.54694 -31.39478,48.9549 -4.79357,5.1977 -4.82105,5.2749 -4.82105,13.5478 0,7.7265 -0.23019,8.5424 -3.22159,11.4307 l -3.22162,3.1103 0.5986,14.2476 0.59854,14.2478 13.45087,-0.7116 c 7.3979,-0.3911 14.82508,-0.9705 16.50478,-1.287 l 3.05396,-0.5755 0.22183,-15.4594 c 0.12216,-8.5026 0.24715,-17.3334 0.27743,-19.6239 0.0462,-3.4753 -0.35178,-4.2225 -2.40646,-4.5145 -1.79271,-0.2548 -2.62455,-1.3117 -3.05995,-3.8871 -1.64465,-9.7276 -2.35727,-15.99196 -1.95622,-17.19515 0.24637,-0.73955 2.4088,-1.33399 4.85206,-1.33399 3.91328,0 4.53959,0.37901 5.58642,3.38213 1.45186,4.16476 3.29676,3.74848 4.53318,-1.0231 0.85899,-3.31504 1.24703,-3.57098 4.93599,-3.25609 3.86273,0.32985 4.72948,1.10359 6.60256,5.89452 0.70203,1.79568 0.94218,1.43668 1.25359,-1.87411 0.40084,-4.26345 1.88774,-5.28023 6.50823,-4.45114 1.86741,0.33501 2.50688,1.48105 3.05402,5.47308 1.8771,13.69495 0.39039,19.59805 -5.56199,22.08515 l -4.047,1.6908 0.74652,12.4149 c 0.41048,6.8281 1.04356,14.7885 1.40666,17.6899 l 0.66019,5.275 h 7.90836 c 4.34965,0 12.78089,0.3282 18.7362,0.7227 12.60945,0.835 13.45442,-0.013 6.94094,-6.9127 -5.44647,-5.775 -5.41087,-11.0019 0.11661,-17.12 2.28489,-2.5292 3.95829,-5.5101 3.89824,-6.9442 -0.0582,-1.3818 -0.23541,-4.1996 -0.39413,-6.2614 -0.54687,-7.0949 8.26323,-10.3886 11.5184,-4.3063 0.99561,1.8603 0.84716,3.1018 -0.71867,6.0092 -1.94195,3.6061 -1.92653,3.7693 0.96506,10.2127 1.61623,3.6013 2.93674,8.2346 2.93441,10.296 -0.003,3.8979 -3.57018,10.9666 -5.53225,10.9666 -0.61974,0 -1.12684,1.0481 -1.12684,2.3289 0,2.3023 0.208,2.32 18.04636,1.5316 9.9255,-0.4384 18.36349,-0.9806 18.75113,-1.2047 0.38781,-0.2242 1.03748,-2.7873 1.44421,-5.6961 0.40671,-2.9088 0.99568,-6.788 1.30878,-8.6204 0.47885,-2.8028 0.052,-3.6367 -2.68931,-5.2533 -6.26128,-3.6925 -5.45784,-14.8629 1.24343,-17.286 5.6943,-2.0591 8.42312,-1.6235 11.95535,1.9088 4.00456,4.0046 4.4513,10.4699 1.02439,14.8265 -2.12565,2.7022 -2.15174,3.1909 -0.60342,11.2834 0.89019,4.6523 1.91948,8.9458 2.28739,9.5411 0.37397,0.605 6.51754,1.0824 13.92993,1.0824 l 13.26097,10e-5 v -5.8408 c 0,-4.6732 -0.45213,-6.1233 -2.2618,-7.2534 -3.829,-2.3912 -4.70479,-6.5197 -2.67768,-12.6227 2.58732,-7.7898 8.30638,-9.9567 14.14895,-5.3608 4.28274,3.3687 5.83165,9.0928 3.64602,13.4739 -1.86204,3.7326 -2.1523,7.804 -1.03721,14.5499 l 0.68832,4.1645 h 6.63583 c 5.68307,0 7.23369,0.4735 10.80029,3.2984 3.80513,3.0137 9.93164,6.0899 10.63373,5.3393 0.32321,-0.3453 3.84535,-28.826 3.84535,-31.0943 0,-0.7967 -1.12446,-1.942 -2.49872,-2.5449 -2.25106,-0.9876 -2.60883,-2.2646 -3.60926,-12.8832 -0.61083,-6.4828 -1.65943,-12.4797 -2.33025,-13.3265 -0.6708,-0.8469 -3.10388,-7.10856 -5.40673,-13.91498 -5.50982,-16.28483 -7.96316,-20.55512 -12.48069,-21.72373 -4.02,-1.03999 -6.9907,-4.58775 -6.9907,-8.34875 0,-2.16362 -0.57797,-2.5293 -3.99797,-2.5293 -5.92909,0 -11.54965,-5.89077 -11.54965,-12.10489 0,-2.50433 -0.4882,-4.55332 -1.08497,-4.55332 -0.59668,0 -1.91838,-1.27199 -2.93703,-2.82666 -2.30156,-3.51261 -0.9503,-9.01224 3.83863,-15.62321 2.73382,-3.77383 4.36636,-4.73647 11.94745,-7.04453 4.82954,-1.4704 9.19217,-3.01858 9.69476,-3.44056 0.50257,-0.42196 0.31524,-2.95463 -0.41676,-5.62826 -0.73183,-2.67355 -2.93832,-12.60711 -4.90338,-22.07453 -2.62986,-12.67018 -3.98544,-17.16969 -5.13599,-17.04774 -0.85971,0.0913 -6.00137,0.96565 -11.42587,1.94349 -5.42447,0.97773 -11.92117,1.77497 -14.43705,1.77155 -11.46943,-0.0183 -19.56672,-5.08574 -19.56672,-12.25182 0,-7.18242 2.02985,-10.73139 9.23613,-16.1484 8.33539,-6.26588 12.80321,-8.59448 21.13935,-11.01788 5.17828,-1.50532 6.29054,-2.2287 5.70672,-3.71132 -0.3987,-1.01281 -1.53287,-7.9927 -2.52012,-15.51099 -1.72659,-13.1488 -1.88797,-13.64613 -4.23618,-13.05676 -1.61816,0.40629 -2.66871,0.0209 -3.11591,-1.14543 -0.90681,-2.36311 0.11585,-3.77878 2.72975,-3.77878 1.90301,0 2.1766,-0.87814 2.33541,-7.4962 0.33072,-13.78477 0.57545,-16.9507 1.3713,-17.74658 1.91411,-1.91415 2.83043,3.14048 2.18208,12.03716 -0.49347,6.77231 -0.31731,9.79499 0.60382,10.36433 0.71525,0.44203 3.71607,0.18451 6.66835,-0.57204 2.95239,-0.75666 6.27039,-1.02949 7.37334,-0.60623 1.7994,0.6905 1.83098,0.9439 0.30723,2.46751 -0.93391,0.93391 -4.14603,2.33215 -7.13806,3.1072 l -5.44011,1.40923 0.28027,8.79032 c 0.15424,4.83474 0.92255,11.53898 1.7072,14.89833 l 1.42662,6.10801 8.86283,-0.37229 c 7.84454,-0.32947 9.10369,-0.10591 10.95951,1.94452 l 2.09672,2.31685 -6.55868,-0.65695 c -8.11501,-0.81289 -20.62206,2.85199 -35.06295,10.27441 -11.76908,6.04907 -14.98889,8.91633 -15.98693,14.23629 -1.02757,5.47743 1.97578,9.60251 7.9411,10.90707 11.62133,2.5415 36.73668,-4.07076 50.02983,-13.17156 5.32991,-3.64898 8.27156,-4.93178 11.30006,-4.92767 l 4.09432,0.003 -3.33163,2.69642 c -1.83239,1.48301 -7.82932,5.05589 -13.32654,7.93978 -5.49721,2.88391 -10.17506,5.38813 -10.39532,5.5649 -0.33577,0.26937 8.1157,41.77605 9.27479,45.55042 0.27367,0.89141 2.65993,0.80303 8.52416,-0.31565 19.41351,-3.70288 26.0458,-4.23082 28.98188,-2.30698 4.43928,2.90865 4.58499,6.1903 0.45124,10.16178 -1.96861,1.89132 -5.19023,4.29007 -7.15915,5.33065 -1.96889,1.04047 -3.57982,2.41475 -3.57982,3.05396 0,1.95667 16.79443,1.32843 29.3717,-1.09869 8.84247,-1.70643 12.26839,-1.96514 13.96926,-1.05485 2.6355,1.41046 1.96389,3.03499 -1.8552,4.48702 -2.95567,1.12372 -2.96817,2.10213 -0.18843,14.77655 1.17816,5.37189 1.20215,5.39465 5.02142,4.77486 4.90677,-0.79623 13.28175,-4.83261 14.02021,-6.75714 0.31229,-0.81407 0.11932,-3.41474 -0.42951,-5.77934 -1.43715,-6.19441 -1.27302,-13.28729 0.33745,-14.58794 0.76349,-0.61651 3.63705,-1.4799 6.38569,-1.91856 6.25908,-0.99895 14.89504,-5.57586 18.41583,-9.76014 3.13829,-3.72967 3.30662,-6.76219 1.35133,-24.34673 -0.93529,-8.41109 -1.76395,-11.98954 -2.77635,-11.98954 -2.01804,0 -1.79773,-2.20974 0.47009,-4.71568 1.84701,-2.04094 1.80298,-2.08647 -1.27131,-1.31487 -3.01256,0.7561 -3.14475,0.64064 -2.44739,-2.13782 0.54498,-2.17127 0.3144,-2.9371 -0.88425,-2.9371 -2.6383,0 -3.22058,-2.20644 -1.17798,-4.46345 1.73032,-1.91205 1.74447,-2.26056 0.15607,-3.84903 -0.96069,-0.96071 -1.50808,-2.36854 -1.21644,-3.12854 0.30429,-0.79269 -0.94682,-1.93935 -2.93431,-2.68955 -5.3915,-2.03508 -3.58203,-4.26516 3.10253,-3.82375 6.33571,0.41847 12.04217,-1.94204 17.88092,-7.39622 3.20502,-2.99399 3.53711,-3.92118 3.53711,-9.87558 0,-9.20296 -2.701,-17.37553 -7.49687,-22.68406 -3.25987,-3.60831 -4.59622,-4.36045 -6.92132,-3.89543 -6.6897,1.33798 -15.47231,13.81902 -15.93378,22.64364 -0.16755,3.20068 -0.72615,3.77792 -5.10562,5.27507 -6.22222,2.1271 -6.74158,2.10689 -6.74991,-0.26245 -0.003,-1.06888 -0.75074,-3.36971 -1.65993,-5.11299 -0.90919,-1.74331 -1.36278,-3.6392 -1.00811,-4.2132 0.3547,-0.57399 0.0293,-1.78613 -0.72441,-2.69368 -1.04054,-1.25374 -1.06873,-2.31007 -0.11765,-4.39787 0.71872,-1.57733 0.96274,-4.85818 0.57293,-7.70202 -0.61517,-4.48806 -0.88254,-4.84538 -2.84132,-3.79708 -1.18921,0.63644 -2.84668,0.89453 -3.68318,0.57354 -2.45166,-0.94079 -4.99881,-6.94777 -5.23357,-12.34242 -0.12061,-2.76477 -0.73045,-4.88406 -1.36461,-4.74028 -1.90856,0.43258 -9.31518,-4.68031 -10.02645,-6.92144 -0.366,-1.15259 -1.7659,-2.25221 -3.11135,-2.44362 -2.0391,-0.29003 -2.38785,-0.95131 -2.09536,-3.97351 0.19313,-1.99403 -0.36767,-5.06628 -1.24638,-6.82722 -0.96812,-1.94066 -1.2223,-3.79323 -0.64547,-4.70354 0.52341,-0.82604 0.95938,-2.18773 0.96872,-3.02605 0.0293,-2.6856 -3.07544,0.76599 -4.45784,4.95491 -1.32844,4.02505 -3.52249,4.32712 -2.4802,0.3412 0.35722,-1.36672 -0.0291,-2.7396 -0.93715,-3.31348 -2.38895,-1.51277 -2.97975,-1.2482 -4.55581,2.04011 -0.80503,1.67968 -1.95675,2.94887 -2.55932,2.82039 -2.36755,-0.50496 -1.576,-4.53394 1.80882,-9.20648 l 3.55345,-4.90545 -4.33944,3.43766 c -2.38674,1.89074 -6.93506,5.99304 -10.10738,9.11622 -3.17234,3.12319 -6.24895,5.67854 -6.83692,5.67854 -1.90007,0 -0.0546,-4.13373 3.26552,-7.31466 3.51495,-3.3675 4.20055,-5.20352 1.56549,-4.19237 -2.2298,0.85568 -2.10602,-0.59776 0.27739,-3.25943 3.19555,-3.56828 -15.20191,6.18961 -23.47264,12.44974 -6.42108,4.86005 -7.34499,5.26713 -7.34499,3.23628 0,-3.65649 6.38661,-8.66396 20.9244,-16.4059 7.39196,-3.93648 13.26889,-7.32827 13.05988,-7.5373 -0.20879,-0.20879 -5.5672,1.67987 -11.9071,4.19762 -6.33984,2.51774 -13.02625,5.11719 -14.85864,5.77658 -1.83237,0.65942 -4.90637,1.86632 -6.83108,2.68202 -1.92473,0.81568 -3.9875,1.4831 -4.58396,1.4831 -1.92883,0 -32.21546,15.4948 -35.4373,18.1299 -5.33607,4.36433 -10.0549,7.40655 -14.12852,9.10859 -5.65214,2.36164 -4.21944,-0.21139 2.77572,-4.98488 3.09337,-2.11089 6.10059,-4.72798 6.68274,-5.81575 0.58218,-1.08778 2.46598,-2.70566 4.18627,-3.59524 1.72027,-0.88958 4.82888,-3.27846 6.90799,-5.30855 2.07908,-2.03014 5.02953,-4.53625 6.55655,-5.56911 l 2.77638,-1.87802 -3.88694,0.65245 c -3.78887,0.63598 -19.98976,11.80106 -19.98976,13.77622 0,1.21115 -4.43548,3.62998 -5.21918,2.84631 -0.3228,-0.3228 0.51379,-1.9874 1.8589,-3.69926 3.21432,-4.09072 18.75796,-16.99431 20.47133,-16.99431 0.73516,0 3.05793,-1.30751 5.16169,-2.90556 2.10374,-1.59812 6.82352,-4.36848 10.4883,-6.15638 4.41869,-2.15572 5.54096,-3.0351 3.33166,-2.61055 -1.83245,0.35217 -8.49554,3.1225 -14.80694,6.15638 -6.31142,3.03386 -11.68365,5.51611 -11.93836,5.51611 -1.63254,0 0.0686,-2.40943 2.86852,-4.06353 4.61201,-2.72439 4.18089,-3.9518 -0.67527,-1.92272 -4.54986,1.90104 -5.91416,1.37239 -3.6475,-1.41339 1.74716,-2.14724 2.38167,-2.3059 -7.89315,1.97375 -3.35944,1.39924 -6.36225,2.81766 -6.67295,3.15209 -0.3106,0.33453 -1.96117,1.84425 -3.66775,3.35527 -2.5865,2.29006 -3.26893,2.47849 -4.10091,1.13231 -0.785,-1.27006 -1.3061,-0.88751 -2.44029,1.79137 -1.51912,3.58817 -4.2185,3.88216 -4.2185,0.45955 0,-2.12234 6.364,-8.31213 10.46902,-10.18253 1.76337,-0.80343 2.45113,-2.13869 2.52974,-4.91132 0.12036,-4.23007 -0.58947,-4.5392 -5.08334,-2.21536 -4.71978,2.44073 -6.26464,4.7112 -4.5838,6.73651 1.15055,1.3863 1.00977,1.6658 -0.83859,1.6658 -1.22158,0 -2.84113,-0.74707 -3.59896,-1.66026 -5.47964,-6.60257 27.5368,-21.13532 58.27909,-25.65253 6.11893,-0.8991 12.62462,-2.09301 14.45698,-2.65315 5.26239,-1.60863 34.44584,-3.37166 46.30354,-2.79732 13.99387,0.67789 19.34005,1.94739 23.01098,5.46439 3.35745,3.2166 6.01102,3.53254 10.08942,1.20111 3.87542,-2.2154 12.09303,-2.16805 12.9536,0.0747 0.36726,0.95727 0.10126,2.30657 -0.59018,2.99847 -0.69189,0.6919 -1.25797,1.95673 -1.25797,2.81078 0,1.24925 1.34842,1.39624 6.8991,0.75197 l 6.89915,-0.80073 -3.15063,4.13071 -3.15063,4.13062 4.30297,-2.78005 c 3.16349,-2.04388 5.25867,-2.62708 7.91217,-2.20234 4.40615,0.7052 4.5175,1.65511 0.55532,4.73644 -2.17446,1.69097 -2.35544,2.03753 -0.62832,1.20314 3.1904,-1.54129 5.90341,-1.49001 5.90341,0.11146 0,0.70587 1.28061,2.96238 2.84578,5.01441 1.87757,2.46161 2.6078,4.48101 2.14629,5.93524 -0.54381,1.71326 -0.18844,2.20409 1.59636,2.20409 2.95932,0 2.95552,2.74371 -0.008,4.81855 -1.59849,1.11968 -1.90392,1.85922 -0.99865,2.41876 0.77664,0.47992 1.0454,2.09875 0.66459,4.00282 -0.35462,1.77348 -0.15736,3.19691 0.44334,3.19691 1.81082,0 1.21549,2.86347 -1.24582,5.99252 -1.73502,2.20569 -2.02058,3.33158 -1.12018,4.41651 0.66463,0.80084 0.87962,1.78493 0.47773,2.18682 -0.40209,0.40168 -0.0895,0.73069 0.6944,0.73069 0.88855,0 1.20167,0.85455 0.83174,2.26937 -0.32651,1.24811 -0.13807,3.85716 0.41845,5.79788 0.74673,2.60359 0.61267,3.92796 -0.51131,5.05194 -1.8613,1.86129 -0.14538,7.6947 2.94079,9.99803 6.25856,4.67099 9.70022,21.76653 6.39694,31.77548 -0.71315,2.16086 -2.75989,4.97073 -4.54831,6.24422 -3.53243,2.51533 -4.22075,5.19366 -1.59375,6.20171 1.13454,0.4354 1.44264,1.49393 0.9759,3.35355 -0.46211,1.84127 -0.0944,3.14675 1.13987,4.0495 1.68053,1.22887 1.66313,1.63374 -0.22444,5.21831 -3.9999,7.59575 -7.11601,12.21522 -8.23985,12.21522 -0.68908,0 -0.8595,1.4007 -0.43104,3.54299 3.56444,17.82212 3.0041,34.92631 -1.25346,38.26318 -5.09243,3.99121 -15.84031,9.27893 -18.86043,9.27893 -4.51105,0 -6.29026,2.35347 -5.39339,7.13426 l 0.71796,3.82707 3.96452,-1.65649 c 2.1805,-0.91109 5.28739,-1.50335 6.90407,-1.31615 2.64574,0.30644 3.27261,1.34994 6.2712,10.43953 l 3.33165,10.09919 11.6673,11.13728 c 7.68738,7.33816 13.12986,13.63814 15.95511,18.46919 2.35834,4.03254 4.97907,7.9055 5.82382,8.60662 0.84476,0.70111 1.53594,1.72421 1.53594,2.27349 0,0.54941 3.01605,7.43092 6.70235,15.29233 6.65717,14.1972 8.43864,18.8652 16.5774,43.4372 5.91759,17.866 10.06255,39.1396 9.92772,50.95383 l -0.10862,9.54 -1.35278,-6.8587 c -0.74397,-3.7722 -1.87615,-7.5202 -2.51592,-8.329 -0.63978,-0.8088 -1.49064,-3.71953 -1.89078,-6.46793 -1.05944,-7.2778 -7.26742,-32.7847 -9.86547,-40.5349 -4.15735,-12.4016 -7.23347,-20.7373 -8.9515,-24.2576 -4.10784,-8.417 -12.96445,-28.09395 -12.96445,-28.80383 0,-0.42803 -2.24884,-4.06312 -4.99746,-8.07785 -2.7486,-4.01487 -4.99746,-7.5536 -4.99746,-7.86397 0,-0.31063 -0.62469,-1.21118 -1.3882,-2.00169 -0.76348,-0.79039 -6.35176,-6.7467 -12.41843,-13.23605 -9.5789,-10.24638 -11.2594,-11.60514 -12.77126,-10.32651 -3.56912,3.01859 -24.67317,14.08273 -30.86215,16.18002 l -6.41627,2.17442 0.25758,5.3455 c 0.14146,2.94004 0.28965,19.62335 0.32867,37.07406 0.0684,30.3521 -0.67916,39.809 -4.05144,51.2846 -0.49088,1.6703 0.21948,1.9434 5.05511,1.9434 5.09279,0 6.07402,0.4353 10.34737,4.5912 2.59662,2.5252 6.07499,5.0656 7.72968,5.6456 1.6548,0.5798 3.3176,2.0276 3.69517,3.2172 0.37772,1.1897 2.65144,3.981 5.05304,6.2031 7.17112,6.63493 10.00114,13.83063 10.69932,27.20473 0.32866,6.2929 0.92887,12.0692 1.33414,12.836 0.52997,1.003 2.64978,0.1515 7.55267,-3.0346 3.74876,-2.4359 7.11952,-4.9202 7.49064,-5.5208 0.37103,-0.6004 -0.37692,-3.1529 -1.66203,-5.6723 -2.65205,-5.1984 -1.90874,-9.3899 2.49691,-14.0794 2.33041,-2.4807 2.35022,-2.6953 0.53291,-5.7719 -2.81994,-4.77373 -2.41298,-11.20803 1.02963,-16.28123 2.69058,-3.9645 2.86882,-4.9391 2.29417,-12.5377 -0.34294,-4.5317 -1.06205,-8.5389 -1.5984,-8.9053 -0.53641,-0.3663 -1.84791,-3.6644 -2.91449,-7.3291 -1.06655,-3.6648 -2.4596,-7.6112 -3.09564,-8.7694 -0.63605,-1.1583 -2.3795,-5.3555 -3.87434,-9.3269 -1.49482,-3.9714 -3.44388,-8.2573 -4.3312,-9.524 -2.0464,-2.9218 -2.09676,-7.3619 -0.0837,-7.3619 2.27966,0 3.78908,2.3004 6.27319,9.5605 1.23121,3.5984 3.44806,9.0411 4.92633,12.0952 6.84859,14.1485 9.48155,24.3281 9.48155,36.6583 0,5.8398 -0.39916,7.1962 -2.77635,9.4291 -3.3247,3.1235 -3.45319,5.1798 -0.55529,8.8845 3.19205,4.08083 2.92514,10.39053 -0.55529,13.12823 -2.55006,2.0058 -2.77635,2.9114 -2.77635,11.1112 0,7.8112 -0.26532,9.0114 -2.12082,9.6003 -3.77997,1.1998 -5.03347,3.6236 -3.55358,6.8716 1.74227,3.8239 0.45348,4.9107 -2.09538,1.767 -2.50875,-3.0943 -4.4462,-3.2153 -4.4462,-0.2773 0,1.892 -0.74038,2.2211 -4.99749,2.2211 -2.74857,0 -5.02193,-0.1252 -5.05194,-0.2775 -0.0293,-0.1529 -0.46874,-7.068 -0.9751,-15.3675 -0.90639,-14.8578 -1.75914,-18.2721 -5.66158,-22.6687 -1.08426,-1.2216 -2.15307,-3.22053 -2.37509,-4.44223 -0.57287,-3.1517 -7.79328,-5.3329 -15.23724,-4.6029 -4.51087,0.4424 -6.76121,1.3353 -9.16198,3.6354 -7.20971,6.90733 -2.17296,11.15543 11.95919,10.08653 l 8.37395,-0.6333 2.24963,5.0859 c 2.47218,5.5885 2.345,11.9537 -0.35171,17.5945 -1.48818,3.1131 -1.92588,3.2757 -9.65837,3.5883 -8.74062,0.3535 -8.49718,0.086 -6.0445,6.6134 0.28719,0.7636 -0.26391,1.3882 -1.22391,1.3882 -2.02787,0 -4.04476,-3.2861 -4.04476,-6.5902 0,-2.7654 -1.42007,-2.9364 -3.88794,-0.4687 -1.16494,1.165 -1.58778,2.7724 -1.16869,4.4423 0.56508,2.2514 0.24924,2.6166 -2.26223,2.6166 -2.66774,0 -2.88096,-0.3261 -2.47673,-3.7886 l 0.44227,-3.7886 -13.36968,-0.6374 c -10.76797,-0.5133 -91.91938,-1.4935 -188.28048,-2.2741 -77.614,-0.6288 -172.93129,-1.8645 -178.38598,-2.3127 -7.54559,-0.6201 -8.13619,-0.037 -8.17032,8.0817 -0.0128,2.9974 -0.43871,3.6095 -2.513864,3.6112 -2.274375,0 -2.498766,-0.5218 -2.498766,-5.8304 v -5.8324 l -10.608001,-0.076 c -5.83442,-0.043 -11.206667,-0.4463 -11.938343,-0.8984 -1.466094,-0.9061 -1.718058,-9.1916 -0.629817,-20.7098 l 0.684713,-7.24743 8.469379,-3.6036 c 4.658162,-1.982 9.314431,-3.5933 10.347275,-3.5805 1.032872,0.013 2.178363,-0.463 2.545631,-1.057 0.36727,-0.5943 2.70825,-1.63 5.202258,-2.3015 2.523145,-0.6795 5.702835,-2.6094 7.168375,-4.3512 1.44859,-1.7215 3.75973,-3.417 5.13582,-3.7674 2.16658,-0.552 2.52705,-1.4242 2.68882,-6.5069 0.10282,-3.2281 0.81911,-12.0302 1.59187,-19.5598 1.44246,-14.0548 1.35423,-14.5921 -2.62799,-16.0041 -0.46707,-0.166 -1.15355,-3.5595 -1.52543,-7.542 -0.86663,-9.2806 0.56454,-10.9495 6.61084,-7.7089 2.2467,1.2042 4.3366,2.1894 4.64422,2.1894 0.30766,0 0.55929,-2.7644 0.55929,-6.1429 0,-4.4359 -0.46292,-6.3204 -1.66583,-6.782 -2.1215,-0.8141 -2.17003,-2.6227 -0.0706,-2.6227 0.98827,0 1.72792,-1.3736 1.94346,-3.6093 0.44197,-4.58399 3.525,-4.95784 4.03737,-0.4897 0.19686,1.7158 1.07132,3.3935 1.94344,3.7281 2.0813,0.7987 2.03261,3.2934 -0.0802,4.1041 -2.31163,0.8871 -2.22294,8.859 0.12006,10.8037 1.51364,1.2562 2.00888,1.1774 3.24777,-0.5171 0.804,-1.0993 2.3741,-1.8254 3.48912,-1.6134 3.13402,0.5961 3.38829,10.7704 0.42225,16.8975 -1.53598,3.1729 -2.2708,6.8679 -2.24809,11.304 0.0462,8.9983 1.47121,5.9233 3.79288,-8.184 1.78117,-10.8231 3.61763,-17.9869 4.6111,-17.9869 0.24554,0 2.44558,1.999 4.8888,4.4423 2.44319,2.4432 5.1004,4.4421 5.90495,4.4421 0.91069,0 2.22374,-3.2482 3.47913,-8.6068 2.58017,-11.0132 8.71865,-28.71418 13.27548,-38.28147 l 3.55507,-7.46394 -3.08979,-1.07715 c -1.69942,-0.59236 -5.57368,-3.40043 -8.60953,-6.24011 -3.0358,-2.83968 -5.97314,-4.88278 -6.52736,-4.54028 -0.55417,0.34262 -1.3128,3.19932 -1.68577,6.34847 -0.76086,6.42446 -3.22964,10.99738 -5.93713,10.99738 -1.56342,0 -1.72296,-1.15107 -1.19283,-8.60675 0.33662,-4.73366 0.22916,-9.60623 -0.2384,-10.82781 -0.75946,-1.98357 -1.49034,-1.509 -6.833,4.43625 -13.89153,15.45832 -15.85455,16.94724 -17.3174,13.13516 -0.62158,-1.61985 0.66221,-15.35874 2.65363,-28.39923 0.97181,-6.36337 -1.91284,-5.40613 -10.54403,3.49891 -4.08531,4.21493 -8.62959,8.27188 -10.09845,9.01552 l -2.67064,1.35192 0.78763,-7.07198 c 0.43321,-3.88964 1.08837,-9.77452 1.45589,-13.07757 l 0.6683,-6.00558 -11.001261,7.59863 c -6.050702,4.17925 -12.750398,8.93621 -14.888192,10.57104 -2.13778,1.63482 -6.291425,4.02684 -9.230275,5.31559 -5.306557,2.32712 -17.591987,13.91635 -28.380769,26.77236 -6.065864,7.22812 -16.008295,26.39764 -17.890757,34.49414 -0.781039,3.3595 -2.621277,9.0039 -4.089335,12.5432 -1.468064,3.5394 -2.374139,6.9126 -2.013463,7.4962 0.36055,0.5835 2.141522,1.0609 3.957499,1.0609 1.815975,0 5.159738,0.7888 7.430623,1.753 4.233304,1.7971 18.626884,2.4288 23.154714,1.0163 1.371734,-0.4279 3.077697,-2.546 4.055551,-5.0354 1.426041,-3.6303 2.797983,-4.8213 8.845291,-7.6785 3.936597,-1.86 7.664336,-3.3819 8.283816,-3.3819 0.76123,0 0.761603,-1.3665 0.0014,-4.2158 -1.514105,-5.6727 0.736253,-10.63 5.051373,-11.1279 3.761273,-0.4339 4.147841,2.23 0.676394,4.6614 -2.298371,1.6099 -2.314994,1.7955 -0.555267,6.1934 2.586312,6.4638 2.32591,8.7916 -1.130503,10.1057 -1.619501,0.6157 -3.493531,0.9284 -4.164517,0.6951 -0.670986,-0.2336 -2.961679,0.4997 -5.09044,1.6293 -2.128722,1.1296 -4.426637,2.0538 -5.106396,2.0538 -0.679796,0 -2.137407,1.9989 -3.239124,4.4422 -1.101714,2.4431 -2.67685,4.4421 -3.50028,4.4421 -1.909789,0 -1.848299,2.0244 0.168727,5.5528 2.073108,3.6265 2.100642,10.4725 0.04908,12.1753 -1.403542,1.1647 -1.330258,1.8767 0.555268,5.3946 1.200773,2.2404 2.172121,6.2108 2.172121,8.8783 0,4.5687 -0.227919,4.9153 -4.282164,6.5077 l -4.282202,1.6822 2.619725,9.01093 c 3.647062,12.5444 8.60365,37.3536 7.652241,38.3014 -0.433543,0.4318 -1.712258,-0.3548 -2.841679,-1.7476 -1.942105,-2.3955 -4.521661,-12.3462 -8.163394,-31.4901 -2.46014,-12.93253 -2.825479,-13.17543 -19.823503,-13.17543 -12.111954,0 -14.190261,0.2538 -14.190261,1.7315 0,0.9522 -0.519755,1.4101 -1.155065,1.0174 -1.668313,-1.031 -0.606514,2.85003 6.767614,24.73713 l 6.454284,19.1569 h -2.730066 c -1.853797,0 -3.052095,-0.849 -3.735672,-2.647 z m 494.579607,-11.3257 c 0.37063,-0.9662 0.6741,-4.48 0.6741,-7.8086 0,-6.8238 -1.27089,-8.0286 -6.53392,-6.1938 -2.15043,0.7496 -15.61029,0.8022 -40.27109,0.1572 -20.37262,-0.5326 -49.53469,-1.0548 -64.8047,-1.1603 -15.27004,-0.1058 -41.50664,-0.6002 -58.30362,-1.0996 -16.797,-0.4992 -54.52771,-1.1929 -83.84612,-1.5413 -29.31838,-0.3484 -73.29593,-0.8994 -97.7279,-1.2243 -76.624038,-1.0193 -80.618895,-0.9825 -81.736479,0.7524 -0.828308,1.2859 -1.162919,1.2972 -1.957596,0.066 -0.527189,-0.8169 -2.121796,-1.3167 -3.543599,-1.1106 -3.06813,0.4448 -4.930064,5.9908 -3.883793,11.5681 l 0.66855,3.5635 10.799573,0.7089 c 13.877728,0.9108 164.478904,2.9511 287.880444,3.8999 52.83413,0.4062 106.37836,0.8377 118.98706,0.959 20.01207,0.1926 23.01064,0 23.59909,-1.536 z m -24.6749,-19.6929 c -1.32799,-1.4137 -2.41459,-3.653 -2.41459,-4.9763 0,-3.03153 -3.10739,-3.89063 -11.27037,-3.11623 -6.0765,0.5765 -10.28691,1.75083 -15.11671,4.21643 -1.89454,0.9671 -4.19412,0.9684 -9.37485,0 -7.41154,-1.3784 -8.87253,-1.0557 -6.37269,1.4073 4.48247,4.4165 7.79975,5.0205 27.6135,5.0274 l 19.35045,0.013 -2.41474,-2.5703 z m -84.27728,-2.1495 c -1.40444,-2.4045 -2.92115,-3.5827 -4.54445,-3.5299 -1.34001,0.044 -7.69329,0.1688 -14.11831,0.2774 l -11.68189,0.1981 0.6623,2.6388 c 0.58398,2.3268 0.33912,2.5769 -2.06977,2.1165 -1.50261,-0.2872 -3.06998,0.026 -3.48306,0.6928 -0.53258,0.8618 4.78798,1.2151 18.29606,1.2151 h 19.04706 z m -104.70882,1.3882 c 0,-0.6108 -0.47029,-1.1106 -1.045,-1.1106 -0.57478,0 -1.35386,0.4998 -1.73135,1.1106 -0.37736,0.6108 0.0929,1.1105 1.04498,1.1105 0.95225,0 1.73137,-0.4997 1.73137,-1.1105 z m 41.74715,-2.0244 c -2.47329,-4.78283 -4.51043,-6.13113 -6.1955,-4.1008 -3.60795,4.3474 -20.87643,6.3898 -29.12564,3.4448 -4.4928,-1.6038 -5.3155,-1.3323 -5.3155,1.7549 0,1.9029 1.38063,2.036 21.12888,2.036 h 21.12889 z m -85.05839,-1.8625 v -3.88693 h -12.61626 c -6.93896,0 -14.8656,-0.3086 -17.61478,-0.6851 -4.87156,-0.6677 -5.0307,-0.593 -6.26303,2.94193 -0.69544,1.995 -1.26443,4.0526 -1.26443,4.5722 0,0.5196 8.49563,0.9448 18.8792,0.9448 h 18.8793 z m -79.12629,-0.2299 c 0.7635,-1.6441 1.38403,-3.26433 1.379,-3.60063 -0.004,-0.3362 -6.80662,-0.7773 -15.11465,-0.9798 l -15.10545,-0.3682 -3.16987,3.03703 c -1.7434,1.6704 -2.90824,3.4601 -2.58853,3.9775 0.31984,0.5173 7.9231,0.9367 16.89632,0.9319 l 16.315,-0.013 1.38818,-2.989 z m 120.8745,-2.82413 c -0.39123,-1.3742 -1.01313,-3.8794 -1.38177,-5.5669 -0.92137,-4.2182 -3.65988,-4.6609 -18.76508,-3.0339 -7.01666,0.7558 -14.24772,1.0763 -16.06896,0.712 -3.23043,-0.6461 -3.31134,-0.5545 -3.31134,3.7522 0,4.2122 0.16521,4.42063 3.60928,4.54983 8.37919,0.3144 34.78207,1.7159 35.66698,1.8931 0.52933,0.1058 0.64223,-0.9319 0.25106,-2.30633 z m 29.04902,0.72303 c 2.68996,-0.4068 3.60925,-1.11283 3.60925,-2.77173 0,-2.8616 -2.86884,-8.4232 -4.69641,-9.1046 -0.94357,-0.3518 -0.70832,-0.8154 0.70946,-1.3978 1.60781,-0.6606 2.73796,-0.098 4.67065,2.326 3.69426,4.633 4.14166,2.9134 0.63766,-2.4504 -1.64292,-2.515 -3.8385,-6.1266 -4.87899,-8.0257 -2.76603,-5.0487 -4.29939,-4.3699 -3.48874,1.5445 0.43952,3.2064 0.26361,4.9974 -0.49036,4.9974 -1.68307,0 -3.26729,-5.9757 -4.02344,-15.1768 -1.05111,-12.7905 -1.89702,-13.1496 -4.72992,-2.0087 -1.39395,5.4819 -2.54669,11.8073 -2.56177,14.0567 -0.0209,3.0819 -0.56753,4.2611 -2.21953,4.7853 -4.9605,1.5745 -8.72096,10.2851 -5.34177,12.3736 3.57881,2.21183 11.78499,2.51853 22.80391,0.85223 z m 38.67029,0.4012 c 0.72763,-0.7276 -4.35603,-9.15473 -6.21617,-10.30433 -0.76257,-0.4712 -1.09609,0.013 -0.87793,1.2722 0.28289,1.6345 -0.62589,2.1836 -4.64551,2.8055 -2.74859,0.4253 -7.17483,0.8102 -9.83606,0.8555 -3.93768,0.067 -4.71311,0.4092 -4.16456,1.839 0.37061,0.9661 0.67411,2.1906 0.67411,2.72093 0,1.6988 23.42065,2.4567 25.06612,0.8112 z m 65.61343,-3.66703 c -5.15879,-4.7476 -5.66655,-4.9531 -12.216,-4.9455 -3.75836,0 -10.19151,0.3248 -14.29587,0.7128 l -7.4624,0.7048 2.8855,3.4518 c 1.58708,1.8985 3.69579,3.79143 4.68607,4.20673 0.99031,0.4151 8.5471,0.7701 16.79289,0.7888 l 14.99237,0.034 -5.38256,-4.95353 z m -297.44242,2.2222 c 5.27957,-1.5679 5.75429,-1.9848 5.75429,-5.0526 0,-4.2258 -2.47437,-9.0613 -6.09331,-11.908 -3.56483,-2.8041 -4.87612,-9.3149 -5.77586,-28.679 -0.66155,-14.2364 -0.62041,-14.6055 1.70877,-15.3448 1.65417,-0.525 2.39126,-1.6718 2.40176,-3.7366 0.008,-1.6386 0.31983,-4.1158 0.69176,-5.5046 0.67573,-2.5222 0.67207,-2.5228 -2.74736,-0.5603 -3.29504,1.891 -3.48107,1.887 -4.93787,-0.1058 -1.3084,-1.7894 -1.83071,-1.8726 -3.84875,-0.6123 -1.8752,1.1712 -2.92675,1.1886 -5.34107,0.089 -2.97712,-1.3564 -2.99937,-1.3357 -2.30337,2.1443 0.38658,1.9327 0.70277,4.4509 0.70277,5.5961 0,1.1452 0.76529,2.0824 1.70067,2.0824 2.80084,0 2.94153,2.3127 1.13626,18.6793 -0.94953,8.6083 -1.72636,17.9686 -1.72636,20.8008 0,4.2499 -0.39581,5.253 -2.26653,5.7422 -1.24656,0.326 -2.07049,1.1537 -1.83099,1.8394 0.2766,0.7917 3.43467,1.1858 8.65213,1.0796 l 8.21666,-0.167 -4.30848,2.211 c -4.09304,2.1004 -7.03381,2.2377 -15.68132,0.7313 -1.8841,-0.3281 -2.2719,0.3077 -2.55568,4.1915 -0.31899,4.3656 -0.1385,4.6597 3.8869,6.3283 5.44621,2.25793 17.2348,2.33263 24.56498,0.156 z m 84.60297,0.1857 c 0,-1.1156 -2.30275,-1.6594 -8.60672,-2.0326 -9.51422,-0.5634 -19.15693,-4.0526 -19.15693,-6.932 0,-2.7985 -1.90206,-1.9982 -5.04539,2.1228 -4.23805,5.5565 -3.36141,6.5402 5.66223,6.3541 4.24174,-0.088 10.71072,0.2635 14.37553,0.7803 10.3545,1.45973 12.77128,1.40443 12.77128,-0.2926 z m -116.85045,-2.919 c -0.0709,-2.4916 -0.62322,-3.3317 -2.19106,-3.3317 -3.070388,0 -11.081753,4.3477 -10.310623,5.5954 0.36307,0.5873 3.345694,1.06803 6.628221,1.06803 5.911982,0 5.967272,-0.03 5.873462,-3.33173 z m 360.05968,1.6659 c 0,-0.9191 0.9843,-1.6659 2.19548,-1.6659 1.20757,0 3.02536,-1.2665 4.03961,-2.8144 2.31742,-3.5368 1.239,-6.1539 -3.97168,-9.6384 -5.24015,-3.5042 -5.76932,-6.6908 -4.9402,-29.7479 0.69975,-19.4608 1.41196,-23.3214 4.30235,-23.3214 4.76482,0 6.62404,-7.7899 2.94391,-12.3345 -1.77839,-2.1963 -2.35919,-2.3655 -3.85554,-1.1238 -1.4782,1.2268 -2.34767,1.1092 -5.40237,-0.732 -3.56994,-2.1515 -3.70534,-2.1538 -6.97227,-0.1161 -1.83239,1.1432 -4.2459,2.0811 -5.36335,2.0843 -1.71219,0 -1.90825,0.5733 -1.24664,3.6151 1.1889,5.4663 2.31093,7.9926 4.27322,9.6212 0.97981,0.8133 1.78153,2.167 1.78153,3.0083 0,0.8415 0.74957,1.5298 1.66579,1.5298 2.18912,0 2.11204,1.0947 -0.196,2.7823 -2.12735,1.5556 -4.6582,19.6817 -4.74835,34.0074 -0.0379,6.1241 -0.51475,8.8537 -1.71909,9.8532 -3.56298,2.9571 -1.73465,3.6427 7.6773,2.8791 5.4144,-0.4394 9.60966,-0.3271 9.97691,0.2674 0.90756,1.4685 -4.91976,2.4063 -14.95112,2.4063 -4.77399,0 -8.96292,0.4579 -9.30875,1.0173 -1.2859,2.0807 1.69288,6.9008 5.20907,8.429 5.11683,2.22373 18.61006,2.21903 18.61006,-0.013 z m 31.65055,-3.887 c 3.48344,-1.8323 7.90695,-3.3814 9.83,-3.4424 1.92309,-0.061 4.74589,-0.4662 6.2729,-0.9009 l 2.77632,-0.7903 -2.66598,-1.4486 c -4.51033,-2.451 -16.6342,-2.1124 -21.76598,0.6078 -4.315,2.2873 -4.81117,3.4729 -3.31373,7.9179 0.67854,2.0141 1.81752,1.7645 8.86647,-1.9435 z m -343.99117,-1.1276 c 1.98509,-1.8059 3.60924,-4.2899 3.60924,-5.5202 0,-2.706 -0.044,-2.7092 -4.95977,-0.365 -3.32669,1.5864 -3.92459,2.4322 -3.92459,5.5526 0,4.4901 0.65944,4.5318 5.27512,0.3328 z m 78.571,0.018 c 0.37735,-0.6108 0.1866,-1.1105 -0.4242,-1.1105 -0.61082,0 -1.41936,0.4997 -1.79688,1.1105 -0.37733,0.6109 -0.1866,1.1106 0.42418,1.1106 0.61077,0 1.41941,-0.4997 1.7969,-1.1106 z m -57.607,-1.1105 c 6.78159,0 11.47438,-11.3488 5.33041,-12.8909 -4.11368,-1.0325 -5.22833,-5.0311 -4.36078,-15.6435 0.80261,-9.818 0.1746,-13.6664 -2.23081,-13.6664 -2.3105,0 -2.66425,1.1024 -4.46054,13.8988 -1.4908,10.6202 -2.00948,12.186 -5.04007,15.2166 -2.73003,2.73 -3.31375,4.1497 -3.04215,7.3989 0.29129,3.4843 0.85458,4.1977 4.22298,5.3477 2.13783,0.7298 4.55248,1.1047 5.36596,0.8329 0.81344,-0.2717 2.71022,-0.4941 4.215,-0.4941 z m 50.44361,-0.5839 c 3.07974,-1.5925 4.57012,-4.9689 2.19344,-4.9689 -0.69429,0 -0.70692,-0.9893 -0.0337,-2.7561 1.55912,-4.1007 -1.76148,-5.5572 -7.34809,-3.2229 -4.22178,1.7639 -14.35195,1.6892 -20.13017,-0.1488 -2.34068,-0.7444 -2.49876,-0.4762 -2.49876,4.2397 0,4.9205 0.10707,5.0723 4.71981,6.7052 6.33267,2.2416 18.89804,2.3241 23.09897,0.1516 z m 162.77845,0.5839 c 9.82029,0 10.43499,-1.2371 3.54495,-7.1347 -4.6302,-3.9633 -4.6528,-3.9692 -6.95605,-1.8054 -3.2502,3.0534 -9.83819,5.6084 -14.46079,5.6084 -2.15739,0 -3.92256,0.4854 -3.92256,1.0788 0,1.5634 6.6808,3.3268 10.41137,2.7482 1.75605,-0.2725 6.87844,-0.4953 11.38308,-0.4953 z m 50.39097,-1.7162 c 0,-1.5549 1.24938,-4.0763 2.77637,-5.6034 1.52696,-1.5268 2.77635,-3.0034 2.77635,-3.2811 0,-0.7179 -11.03425,-0.3777 -14.90077,0.4596 -4.859,1.052 -4.59089,2.7036 1.16708,7.1896 6.16625,4.8041 8.18097,5.1082 8.18097,1.2353 z m -132.76357,-0.3363 c 0.35844,-1.1289 1.89119,-2.6174 3.40647,-3.3078 4.40604,-2.0075 3.20218,-3.5241 -2.79778,-3.5241 -4.82477,0 -5.55268,0.293 -5.55268,2.2362 0,2.3945 2.25476,6.6483 3.52392,6.6483 0.42272,0 1.06176,-0.9238 1.42007,-2.0526 z m -252.184342,-2.5256 c 2.714626,-1.237 3.015491,-1.8447 2.378042,-4.8045 -0.401266,-1.8635 -0.818356,-4.6716 -0.926518,-6.24 -0.176713,-2.564 -0.641482,-2.844 -4.604643,-2.7763 -3.345234,0.057 -4.502734,-0.3933 -4.801247,-1.8682 -0.271574,-1.3409 0.304307,-1.9435 1.8569,-1.9435 3.768619,0 7.907483,-2.4471 7.907483,-4.6755 0,-1.1539 -0.762445,-3.5724 -1.694294,-5.3745 -1.6046,-3.1028 -2.065467,-3.2765 -8.699271,-3.2765 -3.852734,0 -7.379415,-0.3743 -7.83709,-0.8321 -0.988937,-0.9889 -10.638061,-3.5616 -16.371826,-4.3651 -3.309011,-0.4637 -4.153055,-0.1888 -4.550666,1.481 -0.42129,1.7696 -0.648112,1.6703 -1.656604,-0.7259 -1.042116,-2.4761 -1.256222,-2.5589 -1.979883,-0.7649 -0.446261,1.1063 -0.422714,4.8544 0.05247,8.329 1.246524,9.1178 1.241657,12.3687 -0.01644,12.3813 -0.610798,0.013 -1.671254,-1.6056 -2.356552,-3.5815 l -1.246021,-3.5926 -1.429486,3.0507 c -1.950459,4.1626 -0.08522,10.1046 5.058669,16.1139 l 3.960604,4.6271 9.667134,0.4372 c 13.760241,0.6224 23.693148,0.043 27.291606,-1.5991 z m 138.316422,-1.3829 c 3.4445,-5.5733 3.06124,-7.3651 -1.57523,-7.3651 -3.85545,0 -3.8869,0.037 -3.8869,4.905 0,2.8847 0.57173,5.1355 1.3882,5.4649 0.76348,0.3081 1.47233,0.5996 1.5752,0.6477 0.10282,0.049 1.22731,-1.5954 2.49873,-3.6525 z m 207.08231,0.9293 c -1.01301,-1.5461 -2.06449,-2.5883 -2.33668,-2.3162 -0.76903,0.769 1.85024,5.1272 3.08145,5.1272 0.60342,0 0.26822,-1.265 -0.74477,-2.811 z m 88.50104,1.0656 c 1.06072,-0.9599 5.25969,-2.8672 9.331,-4.2384 6.70415,-2.2579 7.22152,-2.6434 5.48438,-4.085 -2.65745,-2.2056 -11.0938,-1.9906 -17.40206,0.4434 -4.5212,1.7445 -5.27505,2.4718 -5.27505,5.09 0,1.6801 0.33324,3.3879 0.74038,3.795 1.32255,1.3227 5.14557,0.7831 7.12135,-1.005 z m -211.72761,-0.9166 c 5.51933,-1.921 7.29948,-4.3705 7.29956,-10.0439 6e-5,-3.7775 -0.62983,-5.0471 -3.88959,-7.8392 l -3.88963,-3.3316 -0.71752,-21.6603 c -0.78325,-23.6429 -0.91368,-23.0683 5.72032,-25.1993 3.18827,-1.024 3.34612,-1.3754 3.66853,-8.1663 0.37109,-7.816 -0.35212,-12.16201 -2.02391,-12.16201 -0.59916,0 -1.08934,1.23182 -1.08934,2.73725 0,5.30026 -7.19742,6.85736 -8.30873,1.79774 -1.00022,-4.55396 -3.53229,-5.14981 -5.52323,-1.2998 -2.73178,5.28252 -9.48947,6.53762 -9.48947,1.76227 0,-1.52711 -0.2088,-2.77634 -0.46445,-2.77634 -0.2555,0 -1.25496,-0.30354 -2.22113,-0.67416 -1.38804,-0.53264 -1.75403,0.10836 -1.74439,3.05408 0.0293,8.38667 1.17078,11.59747 4.58909,12.88777 l 3.26538,1.2326 -0.74256,24.7885 c -0.44187,14.7511 -1.1908,24.957 -1.8495,25.2045 -5.1908,1.9504 -10.80746,12.1254 -8.6343,15.6416 1.09135,1.7659 13.02648,5.4689 17.79676,5.5216 2.1378,0.026 5.84946,-0.6401 8.24811,-1.475 z m -29.31486,-1.7173 c -0.95669,-1.7877 -2.29838,-2.1421 -7.81285,-2.0639 -5.71451,0.081 -6.65787,0.387 -6.65787,2.1583 0,1.8158 0.93885,2.0639 7.81293,2.0639 7.39289,0 7.75075,-0.1161 6.65779,-2.1583 z m 170.43112,0.5656 c 5.62742,-2.3513 6.22283,-6.2317 1.59112,-10.3702 -3.46174,-3.0929 -3.66106,-3.7251 -4.75229,-15.0673 -0.62638,-6.5114 -1.55727,-11.839 -2.06843,-11.839 -1.49087,0 -3.0934,5.3099 -3.12211,10.3449 -0.0378,6.9233 -1.71004,12.873 -4.42637,15.7644 -3.52907,3.7564 -3.52368,9.4666 0.0103,11.2926 3.6446,1.883 8.06453,1.8396 12.76742,-0.1251 z m -69.04343,-1.2041 c 7.27,-0.7785 8.4355,-1.6433 6.44523,-4.7825 -0.70931,-1.1188 -2.80188,-1.287 -8.73529,-0.7025 -9.75491,0.9613 -10.99605,1.6248 -9.00416,4.8144 0.81855,1.3106 2.02688,2.1765 2.68521,1.9237 0.65832,-0.2525 4.53235,-0.8165 8.60901,-1.2531 z m 32.95461,-2.6291 c 3.67389,-2.6895 3.73042,-7.0201 0.10281,-7.8765 -1.85494,-0.4378 -3.16459,-1.9832 -4.27729,-5.0475 -2.07853,-5.7237 -4.70695,-18.9344 -4.7086,-23.6658 -0.003,-7.1745 -2.63187,-2.8674 -5.01423,8.2139 -3.06882,14.274 -4.57397,18.6512 -7.24489,21.0683 -2.74962,2.4884 -2.75053,4.0983 -0.003,6.5843 4.66419,4.221 15.84543,4.6035 21.14587,0.7233 z m 97.14595,-1.1943 c 0.36264,-0.5871 -0.84663,-2.4095 -2.68772,-4.0498 -1.84106,-1.6405 -3.62667,-3.8625 -3.96804,-4.9381 -0.34125,-1.0755 -1.35126,-2.2359 -2.2442,-2.5785 -2.56098,-0.9828 -2.05713,6.2303 0.67817,9.7077 2.29163,2.9133 6.92292,3.9604 8.22179,1.8587 z m -317.74415,-3.247 c 1.98311,-1.7228 1.93859,-1.8231 -1.11053,-2.4965 -5.85029,-1.2919 -12.69681,-0.9796 -16.00297,0.7302 -1.80208,0.9318 -3.27648,1.9474 -3.27648,2.2567 0,2.9695 16.87458,2.5635 20.38998,-0.4904 z m 136.19677,1.5367 c 0,-1.203 -1.23396,-1.6657 -4.44216,-1.6657 -3.20826,0 -4.44217,0.4627 -4.44217,1.6657 0,1.2031 1.23391,1.6658 4.44217,1.6658 3.2082,0 4.44216,-0.4627 4.44216,-1.6658 z m -75.67321,-0.4352 c 1.22099,-0.7736 1.27404,-2.0547 0.27786,-6.7009 -0.67758,-3.1595 -1.23197,-14.4654 -1.23197,-25.1243 0,-18.4431 0.1041,-19.3799 2.15555,-19.3799 2.79423,0 2.96585,-0.3824 3.86183,-8.6068 l 0.75621,-6.9408 h -5.04324 c -3.84043,0 -5.37397,-0.5297 -6.43026,-2.221 -0.76291,-1.2217 -1.90048,-2.2213 -2.52798,-2.2213 -2.07211,0 -9.50084,5.6507 -8.83821,6.7229 0.35719,0.578 3.99336,1.0663 8.08016,1.0848 5.8538,0.026 6.99378,0.2875 5.37195,1.2302 -1.31595,0.7648 -5.02217,0.9187 -10.27253,0.4267 l -8.21386,-0.7696 v 2.871 c 0,4.0495 3.36804,6.9391 10.50649,9.0143 6.78819,1.9733 8.28099,3.3879 2.41375,2.2873 -3.62159,-0.6796 -3.76086,-0.571 -4.47239,3.4856 -0.40378,2.3028 -0.99623,11.4332 -1.31631,20.2897 -0.42502,11.761 -1.07426,17.0972 -2.40783,19.7903 -1.57818,3.1871 -1.60815,3.8251 -0.22078,4.7027 2.03389,1.2869 15.54227,1.3323 17.55174,0.059 z m 174.04723,-1.2305 c 2.72737,0 3.79612,-0.4966 3.79612,-1.7636 0,-1.4567 -0.82079,-1.6276 -4.71982,-0.9825 -5.45297,0.9024 -6.38564,1.3304 -6.38564,2.9304 0,0.6401 0.79051,0.8604 1.75664,0.4897 0.96613,-0.3706 3.46491,-0.674 5.5527,-0.674 z m -147.99553,-1.2018 c -0.83231,-0.8324 -2.69296,-0.869 -6.05242,-0.1187 l -4.85071,1.0828 6.05244,0.1187 c 4.34129,0.085 5.71268,-0.2207 4.85069,-1.0828 z m 67.3928,-1.297 c 0.003,-2.402 -0.32023,-2.4846 -8.32905,-2.1334 -6.15274,0.27 -8.33167,0.7647 -8.33167,1.8927 0,1.1068 2.06369,1.6343 7.49617,1.9159 4.12288,0.2135 7.87097,0.4863 8.32908,0.6059 0.45812,0.12 0.83409,-0.9068 0.83547,-2.2811 z m 171.79238,0.8347 c 3.25549,-2.2804 4.72721,-10.001 5.55364,-29.1351 0.59362,-13.7439 0.46032,-15.8438 -1.00579,-15.8438 -1.47808,0 -4.65884,8.4048 -9.35145,24.7096 -0.58481,2.032 -4.85185,2.7645 -4.85185,0.833 0,-1.2839 -4.08086,-1.521 -4.77831,-0.2774 -0.25708,0.458 -0.80226,2.2327 -1.21159,3.9438 -0.73303,3.064 -0.68334,3.0996 3.29508,2.3532 3.82572,-0.7177 3.9744,-0.6366 2.81179,1.5359 -1.66898,3.1184 -1.55307,3.5828 0.71596,2.8693 1.85088,-0.582 1.85088,-0.5348 0,0.9902 -2.62375,2.1618 -2.49146,2.7298 1.50561,6.4636 3.99367,3.7307 4.16328,3.7668 7.31691,1.5579 z m -256.30495,-4.0544 c 1.96667,-5.6418 1.60871,-6.4976 -2.71806,-6.4976 h -3.93721 l 0.75146,4.1645 c 0.41343,2.2905 0.96517,4.5394 1.22639,4.9975 1.11649,1.9579 3.54909,0.5722 4.67742,-2.6644 z m -83.1822,-2.0138 c 3.47951,-2.1737 16.14118,-7.2363 17.38435,-6.9508 1.20602,0.2771 3.70704,-8.3616 3.7225,-12.8577 0.008,-2.2875 -9.82492,-11.3284 -12.32061,-11.3284 -0.97831,0 -2.68327,-0.9995 -3.7888,-2.2211 -1.10555,-1.2216 -2.6727,-2.221 -3.48257,-2.221 -1.6826,0 -1.69284,0.037 -5.38443,19.4345 -1.51116,7.9404 -3.07517,15.859 -3.4756,17.597 l -0.72811,3.16 3.20374,-1.786 c 1.76204,-0.9822 3.95334,-2.2541 4.86953,-2.8265 z m 55.33749,1.2654 c 0.34964,-2.4672 0.14354,-2.5466 -4.71244,-1.8186 -2.79282,0.4189 -6.85532,0.4281 -9.02779,0.021 -3.20366,-0.6009 -3.82596,-1.1315 -3.29386,-2.8078 0.75603,-2.3821 -0.70347,-3.66 -3.1208,-2.7324 -1.96485,0.754 -3.13296,4.6407 -2.32334,7.7306 0.5205,1.9866 1.56248,2.1876 11.3429,2.1876 10.42388,0 10.78153,-0.083 11.13533,-2.5799 z m 142.14624,2.4249 c 10.19243,-1.0653 7.08562,-2.6262 -5.14748,-2.5861 -9.70543,0.034 -10.55054,0.1956 -8.6065,1.6658 2.4164,1.8278 4.03518,1.936 13.75398,0.9203 z m 87.23213,-1.5459 4.58094,-0.034 -3.11588,-2.7412 c -1.99298,-1.7534 -4.46163,-2.7413 -6.85006,-2.7413 -2.05378,0 -4.52465,-0.3034 -5.4908,-0.6741 -1.35638,-0.5204 -1.75668,0.07 -1.75668,2.5913 0,4.228 0.9412,5.0576 4.85097,4.2756 1.76025,-0.3522 5.26193,-0.6558 7.78151,-0.6752 z m -137.01343,-2.0139 c 0,-2.8903 -3.5728,-5.7766 -7.81547,-6.3135 -5.32797,-0.6743 -5.84717,0.2863 -2.45377,4.539 2.3517,2.9474 3.8776,3.8234 6.65996,3.8234 2.76784,0 3.60928,-0.4775 3.60928,-2.0489 z m -128.8232,-1.9035 c 0,-2.8264 -0.70091,-2.8585 -4.15229,-0.1908 -1.80335,1.3937 -0.72417,3.0329 1.99675,3.0329 1.57216,0 2.15554,-0.7691 2.15554,-2.842 z m 86.90014,-0.5481 c 4.77011,-1.3247 5.83531,-3.7476 1.11051,-2.5258 -1.6797,0.4342 -6.67691,0.8186 -11.10494,0.854 -7.54228,0.061 -9.89195,0.8027 -6.66376,2.1052 2.49509,1.0068 12.40022,0.7491 16.65819,-0.4334 z m 55.71126,-0.8168 c 10.0863,-0.5674 7.42155,-2.4163 -3.5157,-2.4394 -7.45276,-0.018 -8.05145,0.1568 -8.05145,2.3229 0,1.8292 0.42405,2.1445 1.94349,1.4441 1.06887,-0.4926 5.39954,-1.0901 9.62366,-1.3276 z m 96.66355,-0.312 c -0.82469,-1.3343 -3.83945,-1.3467 -3.83945,-0.018 0,1.2036 2.41027,2.2214 3.62736,1.5317 0.46803,-0.2652 0.56348,-0.9472 0.21167,-1.5158 z m -43.81912,-0.3525 c 0,-1.8079 -8.77773,-3.4384 -12.37095,-2.2979 -1.2909,0.4096 -6.90644,1.1569 -12.47911,1.6605 l -10.13207,0.9156 10.74224,-0.3207 c 5.90828,-0.1764 11.40545,0.099 12.21601,0.6138 2.55636,1.6207 12.02388,1.1708 12.02388,-0.5713 z m 24.432,-0.2554 c 0,-0.2342 -1.24935,-0.4259 -2.77635,-0.4259 -1.527,0 -2.77638,0.4305 -2.77638,0.9566 0,0.526 1.24938,0.7177 2.77638,0.4258 1.527,-0.2918 2.77635,-0.7224 2.77635,-0.9565 z m 10.36818,-0.4968 c -0.80428,-0.8043 -2.38191,-0.8363 -4.9419,-0.1006 l -3.76044,1.0812 4.9419,0.1007 c 3.49243,0.07 4.59538,-0.2463 3.76044,-1.0812 z m -195.27383,-1.0396 c -0.37734,-0.6108 -2.62635,-1.1106 -4.99748,-1.1106 -2.37107,0 -4.61991,0.4998 -4.99743,1.1106 -0.42343,0.6851 1.49102,1.1105 4.99743,1.1105 3.50642,0 5.42091,-0.4254 4.99748,-1.1105 z m -3.5148,-5.1445 c 3.35329,-0.4597 5.29636,-1.3233 5.62215,-2.4988 0.27366,-0.988 0.8351,-7.2936 1.24733,-14.0123 l 0.74945,-12.2159 -3.38626,3.21 c -1.86249,1.7655 -3.68476,4.5688 -4.0495,6.2294 -0.91931,4.1855 -5.64311,8.3593 -12.20681,10.7852 -5.45361,2.0156 -7.02785,4.1191 -5.69072,7.6037 0.67251,1.7525 8.56433,2.1527 17.71436,0.8987 z m 129.69139,-7.2013 c 2.88925,-2.8892 2.46128,-8.7865 -1.22852,-16.9296 l -2.44622,-5.3988 -3.50262,4.1905 c -7.48248,8.9519 -8.16495,13.1516 -2.86211,17.6137 4.1475,3.4899 6.92853,3.6351 10.03947,0.5242 z m 144.85378,-6.0116 c 0.96387,-3.3156 1.59512,-7.4745 1.40275,-9.242 -0.30723,-2.8246 -0.65215,-3.1005 -2.84844,-2.2799 -2.30843,0.8625 -2.49872,1.6177 -2.49872,9.9192 0,10.2568 1.27766,10.7761 3.94441,1.6027 z m 9.76139,3.7004 c 0.69242,-2.6477 -0.91021,-5.3329 -3.183,-5.3329 -0.78161,0 -1.93338,1.4694 -2.55936,3.265 -1.01621,2.9152 -0.87912,3.3156 1.27955,3.7357 1.32975,0.2589 2.73421,0.5387 3.12109,0.622 0.38699,0.082 0.99062,-0.9473 1.34172,-2.2898 z m -291.05227,-6.5621 3.45042,-3.4505 -2.48155,-1.8719 c -2.46749,-1.8612 -2.47449,-1.9568 -1.23468,-16.817 1.77403,-21.26277 3.96001,-29.71859 9.09616,-35.18574 2.27882,-2.42571 2.28892,-2.57058 0.33033,-4.73494 -1.11132,-1.22808 -2.53762,-2.23273 -3.16957,-2.23273 -0.63191,0 -3.54373,2.59122 -6.47061,5.7583 -2.92692,3.16708 -5.57881,5.5012 -5.89315,5.18683 -0.31437,-0.31437 1.17572,-3.02879 3.31112,-6.0323 2.13543,-3.00363 3.8826,-5.83737 3.8826,-6.29739 0,-0.46014 -1.44749,-0.83656 -3.21662,-0.83656 -2.29316,0 -4.20841,1.12965 -6.67153,3.93501 -5.77716,6.57977 -15.65438,28.01582 -15.65438,33.97382 0,1.7045 -0.9995,5.6349 -2.2211,8.7341 -1.22159,3.0992 -2.18047,7.7404 -2.13086,10.3137 0.0869,4.5021 0.13934,4.5694 1.38814,1.7862 3.15354,-7.0269 8.11089,-8.4792 14.87237,-4.3564 4.89199,2.9828 5.80966,7.0306 3.09096,13.6344 -0.66338,1.6115 -0.19603,1.9435 2.73582,1.9435 2.47509,0 4.57102,-1.0351 6.9863,-3.4504 z m -13.86329,0.6111 c 2.71917,-1.9047 3.34443,-6.9456 1.1355,-9.1545 -2.68252,-2.6827 -10.17165,-1.406 -12.02074,2.0492 -0.82545,1.5423 -0.40756,2.8036 1.79541,5.422 3.21008,3.8149 5.45334,4.2303 9.08983,1.6833 z m 236.54595,0 c 2.8431,-1.9914 3.28208,-6.7287 0.9226,-9.9555 -1.31328,-1.7959 -1.81424,-1.8908 -3.33168,-0.6314 -1.43035,1.187 -2.1177,1.2069 -3.45177,0.099 -0.91623,-0.7604 -1.66584,-1.1326 -1.66584,-0.827 0,0.3056 -0.75433,2.3611 -1.67633,4.5677 -1.57042,3.7585 -1.53529,4.1531 0.55527,6.2435 2.67827,2.6784 5.32238,2.8321 8.64775,0.503 z m 70.28314,-5.3071 c -1.25869,-1.2586 -4.77324,-0.5187 -5.31874,1.1199 -0.54006,1.622 4.4017,2.4735 5.47842,0.944 0.43267,-0.6147 0.36097,-1.5434 -0.15947,-2.0639 z m -108.01666,-2.0707 c 2.12814,-2.1281 1.55186,-5.8803 -1.39067,-9.0554 -3.2584,-3.5158 -3.49915,-3.5376 -8.10446,-0.7296 -4.34422,2.6487 -4.84781,6.7926 -1.14107,9.3889 2.93169,2.0535 8.76174,2.2705 10.6362,0.3962 z m -177.02549,-4.3918 c 1.11707,-1.595 1.34558,-3.0101 0.68524,-4.244 -0.54484,-1.018 -1.57189,-5.1886 -2.28225,-9.2678 -0.7104,-4.0793 -1.79424,-7.4169 -2.40851,-7.4169 -0.67574,0 -0.79499,1.2064 -0.30179,3.0541 1.05606,3.9568 1.05021,4.1229 -0.41344,11.7893 -0.68399,3.5828 -0.9705,6.9561 -0.63674,7.4962 1.06861,1.729 3.63082,1.0543 5.35749,-1.4109 z m 286.081,-1.4941 c 0,-2.9577 -2.01636,-3.6474 -4.22009,-1.4437 -2.20374,2.2037 -1.51393,4.2201 1.44369,4.2201 2.22114,0 2.7764,-0.5554 2.7764,-2.7764 z m 7.5173,-26.37544 c -0.37903,-17.59366 -1.02238,-25.03399 -2.95555,-34.18319 -2.52289,-11.94031 -2.38952,-14.01187 1.22822,-19.07215 1.05778,-1.47953 1.0638,-3.27192 0.0293,-8.21146 -0.72893,-3.47535 -1.56129,-6.55476 -1.8496,-6.84308 -0.2884,-0.28837 -6.31406,0.35091 -13.39051,1.42061 -13.85416,2.09433 -22.46178,1.72806 -26.8421,-1.14209 -3.8043,-2.49262 -5.55381,-0.90776 -2.53962,2.30071 2.38811,2.54199 2.53508,5.3714 0.54599,10.50683 -0.45167,1.16616 0.38654,2.08485 2.69856,2.95752 4.73721,1.7881 4.74771,7.48173 0.0209,12.00902 -1.83235,1.75561 -3.3316,3.61161 -3.3316,4.12478 0,0.5129 2.66653,5.35595 5.92573,10.76208 3.25918,5.40626 6.57246,12.13941 7.36288,14.96245 0.99726,3.56194 2.02291,5.13291 3.35095,5.13291 1.76121,0 7.97955,8.122 15.63314,20.4189 1.83996,2.9563 3.79938,4.6995 5.55272,4.94 1.4902,0.2046 3.18423,0.829 3.76443,1.3882 0.58029,0.559 2.00586,1.0165 3.16803,1.0165 2.02338,0 2.09243,-0.9541 1.62848,-22.48854 z m -165.40428,18.24174 c 0.31775,-2.2443 -0.0439,-2.5341 -2.77635,-2.2211 -2.30903,0.2644 -3.23897,1.0441 -3.50765,2.9409 -0.31775,2.2443 0.0439,2.534 2.77635,2.221 2.30906,-0.2644 3.23897,-1.0441 3.50765,-2.9408 z m 127.90229,-9.0798 c 2.61348,-2.6134 3.05164,-8.88433 0.62078,-8.88433 -2.88553,0 -3.2218,-2.48028 -0.60394,-4.45488 l 2.55733,-1.92894 -4.79599,-8.19111 c -8.83146,-15.08345 -10.95961,-19.18823 -10.40961,-20.0782 0.30053,-0.48633 -0.73236,-0.8843 -2.29539,-0.8843 -3.85221,0 -3.57953,-1.91887 0.59909,-4.21618 4.939,-2.71534 8.77498,-5.77264 8.77498,-6.99365 0,-1.16616 -3.3674,-2.72482 -8.05146,-3.72679 -3.80494,-0.81394 -3.92676,-3.31949 -0.27738,-5.71056 4.38393,-2.87247 3.65244,-6.43537 -1.75759,-8.56044 -3.31255,-1.30127 -4.43025,-2.31883 -4.14931,-3.77767 0.36768,-1.91025 2.84758,-3.09876 18.12283,-8.6864 3.05404,-1.11716 7.01902,-3.49583 8.81123,-5.28602 3.021,-3.01768 3.1114,-3.33724 1.23988,-4.38454 -1.20616,-0.67503 -4.96055,-0.82828 -9.32823,-0.38072 -8.37104,0.85765 -39.28096,8.14243 -40.13462,9.45888 -0.31227,0.48159 -2.72955,1.97168 -5.37167,3.31136 -3.27687,1.66146 -5.3066,3.639 -6.38562,6.22151 -1.97828,4.73467 -2.07593,4.11019 1.19453,7.63909 2.07197,2.23564 2.77639,4.21466 2.77639,7.79999 0,5.93525 1.67381,7.46405 8.93585,8.16185 5.73723,0.55129 5.8335,0.65577 6.85598,7.43652 0.21792,1.44532 1.99602,2.80833 5.21484,3.99732 4.0964,1.51317 5.38776,2.77157 8.00598,7.80179 3.56783,6.85455 9.85641,25.3654 9.85641,29.01302 0,2.187 4.81829,7.3829 6.94088,7.4847 0.45808,0.021 1.83242,-0.9596 3.05401,-2.1813 z m 12.21595,-0.6615 c 0,-2.5997 -3.58123,-8.22283 -5.23691,-8.22283 -2.21774,0 -1.67907,4.86263 0.83801,7.56443 2.67235,2.8684 4.3989,3.127 4.3989,0.6584 z m -257.1388,-6.3087 4.20923,-3.6386 3.63857,3.6386 c 2.00119,2.0013 4.31323,3.6121 5.1378,3.5797 4.952,-0.1946 47.13308,-67.70913 45.70781,-73.1593 -0.49363,-1.88767 0.0519,-2.01136 6.56416,-1.4887 8.10746,0.65078 10.86248,-0.93941 10.86248,-6.27001 0,-4.21665 -3.58394,-7.10802 -9.69706,-7.82319 -2.81472,-0.32952 -5.31009,-1.18099 -5.5453,-1.89261 -0.73939,-2.23779 3.51092,-2.67567 9.20508,-0.94839 10.6308,3.22482 13.22389,1.65714 10.16017,-6.14243 -0.94414,-2.40345 -1.28047,-4.63946 -0.74745,-4.96893 1.30251,-0.80501 4.00365,3.62186 4.93489,8.08777 0.81344,3.90091 3.79176,6.22132 6.60157,5.1431 3.83345,-1.4711 1.30723,-19.82751 -3.45256,-25.087 -2.97913,-3.2919 -8.83205,-2.45131 -19.78841,2.84199 -17.84104,8.6194 -22.06173,14.16537 -22.23202,29.21253 -0.0564,4.98621 -0.64567,9.7338 -1.30942,10.55016 -0.66375,0.81638 -1.38551,2.34241 -1.60398,3.39118 -0.71146,3.41596 -28.42445,31.59833 -36.2192,36.8325 -12.81247,8.60378 -17.78426,14.26198 -20.3294,23.13653 -0.8095,2.82239 -0.48051,3.42315 3.19253,5.8299 2.25226,1.4758 4.63643,2.7125 5.29813,2.7485 0.66176,0.037 3.09732,-1.572 5.41238,-3.5733 z m 113.31385,-21.6915 c 5.01161,-3.48352 9.40356,-10.4045 9.4308,-14.86157 0.0261,-3.96984 -0.62013,-4.21456 -7.70595,-2.92663 -11.51275,2.09251 -19.02699,7.94408 -20.53696,15.99278 -1.0027,5.34498 0.4421,6.30616 8.27138,5.50301 4.12755,-0.42325 7.54526,-1.62553 10.54073,-3.70759 z m -18.73932,-9.79317 c 1.99334,-4.77067 8.92663,-9.82114 15.95559,-11.62258 6.20597,-1.59053 6.32386,-3.24051 0.22889,-3.20426 -9.27555,0.0548 -17.94719,7.3037 -19.7959,16.54706 -0.96604,4.83027 1.33172,3.73584 3.61142,-1.72022 z m 193.33155,-1.29851 c 1.02784,-0.65325 0.93114,-2.25789 -0.41721,-6.92394 -2.09104,-7.23667 -1.8272,-6.85047 -4.08793,-5.98293 -1.45036,0.55657 -1.67687,1.63138 -1.11719,5.30124 1.13771,7.46038 2.64429,9.49845 5.62223,7.60563 z M 130.6998,871.54274 c 3.91082,-4.45488 14.33225,-26.10975 17.94645,-37.29133 2.138,-6.6145 4.4765,-12.73638 5.19668,-13.60413 1.78361,-2.14915 5.06518,-1.98288 12.69819,0.64325 7.10936,2.44602 18.51755,2.92605 25.23043,1.06169 12.78177,-3.54986 18.99273,-18.59907 16.37959,-39.688 -0.65987,-5.3253 -1.54652,-9.98875 -1.97036,-10.36324 -0.42381,-0.37441 -5.20995,-1.87366 -10.63579,-3.33162 -13.27448,-3.56682 -20.4557,-7.94303 -24.0064,-14.62952 -1.52698,-2.87556 -3.09053,-5.22971 -3.47455,-5.23147 -0.38406,-0.003 -1.31918,1.49601 -2.07819,3.32845 -1.50629,3.63654 -3.33163,4.43473 -3.33163,1.45691 0,-2.7823 4.28414,-8.52419 8.53146,-11.43453 4.50852,-3.0893 6.34939,-2.11487 2.18824,1.1583 -3.86869,3.04311 -3.71947,4.62496 0.92065,9.76107 8.13963,9.00957 25.45666,15.29835 37.87661,13.75514 l 6.56556,-0.81583 0.29885,-6.10765 c 0.16442,-3.3592 -0.0855,-9.06793 -0.55527,-12.68604 -0.83154,-6.40481 -0.99235,-6.65449 -6.09604,-9.46202 -2.88313,-1.58601 -5.84824,-3.48992 -6.58923,-4.23091 -2.42398,-2.42394 0.23123,-3.05709 3.85148,-0.91829 7.23355,4.27373 9.75092,5.24628 17.08066,6.59909 7.62147,1.40666 13.90624,0.40293 17.82101,-2.84603 2.05636,-1.70663 1.70187,-6.23989 -0.80519,-10.29639 -3.56573,-5.76941 -12.66549,-8.80749 -30.48294,-10.17706 -5.23361,-0.40253 -9.51563,-1.10326 -9.51563,-1.55775 0,-1.21236 5.09094,-2.28516 7.1303,-1.50255 1.42895,0.54831 1.75408,-0.20252 1.75408,-4.05005 v -4.72319 l -2.72332,2.93855 c -3.07126,3.3139 -4.5309,3.67325 -5.4277,1.33632 -1.5066,-3.92614 4.08971,-13.94544 7.78932,-13.94544 0.8097,0 1.47221,-0.97466 1.47221,-2.16597 0,-1.82369 -1.05531,-2.28533 -6.67874,-2.92154 -5.67354,-0.6419 -6.47703,-0.99862 -5.33872,-2.37021 0.97337,-1.17282 2.60647,-1.42472 5.96844,-0.92057 l 4.62837,0.69408 0.0482,-7.7235 c 0.0294,-4.9152 1.12028,-11.4493 2.99639,-17.97061 2.02495,-7.03855 2.58944,-10.60584 1.80279,-11.39244 -1.04742,-1.04747 -4.34258,-1.12926 -22.30605,-0.55384 -11.91618,0.38153 -35.82309,-6.6179 -48.33388,-14.15153 -3.47767,-2.09414 -6.76871,-3.53206 -7.31347,-3.19537 -1.60376,0.99119 -1.14613,5.06583 1.28836,11.47115 2.22463,5.85313 3.39355,18.13462 1.87088,19.65726 -0.4204,0.42042 -1.53811,0.12242 -2.48386,-0.66271 -0.9457,-0.78484 -1.93224,-1.21427 -2.1923,-0.95416 -0.26026,0.26019 -0.7876,3.9544 -1.17223,8.20964 -1.0898,12.05701 -3.33743,16.13831 -6.91646,12.55927 -1.82982,-1.82978 -4.27556,0.46247 -5.9098,5.53898 -0.72165,2.24163 -1.74412,4.62358 -2.27218,5.29315 -1.58109,2.00495 -9.03904,0.98965 -10.65964,-1.45114 -0.79137,-1.19183 -1.85677,-7.52185 -2.36758,-14.06659 -0.51077,-6.54476 -1.51432,-12.48518 -2.23009,-13.20098 -1.79734,-1.79735 -8.261524,1.77504 -12.512172,6.91471 -8.471687,10.24366 -11.246043,23.12561 -6.615876,30.71882 1.935433,3.17403 2.761421,3.53532 9.71313,4.24877 13.479108,1.38326 13.341268,1.25661 15.842258,14.55524 1.77966,9.46328 -1.37677,17.66601 -11.62128,30.20025 -3.675278,4.49669 -7.860404,4.86773 -9.394443,0.83289 -1.269645,-3.33941 -3.400597,-3.54694 -6.075214,-0.5915 -1.603799,1.77219 -2.003388,4.34503 -2.115543,13.62268 -0.173791,14.3812 1.707683,19.32275 9.197659,24.15514 2.805585,1.81016 7.849691,5.27872 11.209071,7.70795 3.35941,2.42918 6.78209,4.4411 7.60598,4.47086 0.8239,0.0293 3.07274,0.74513 4.99747,1.58972 1.92469,0.8446 5.116,2.15144 7.09178,2.90409 4.72628,1.8004 5.97221,6.23573 4.66848,16.61869 -0.68358,5.44433 -0.53454,10.79975 0.49297,17.71225 1.22118,8.21548 1.22252,11.67942 0.008,20.27341 -0.80571,5.70074 -1.48253,10.9896 -1.50402,11.75315 -0.0554,1.96996 1.54747,1.71879 3.54389,-0.55522 z m 40.166,-168.43098 c -1.585,-4.13043 8.38589,-16.99819 11.08218,-14.30191 1.68586,1.68591 0.42254,6.11283 -2.78787,9.76933 -4.56035,5.19397 -7.43725,6.76606 -8.29431,4.53258 z M 157.48693,688.8609 c -0.34964,-0.56605 -0.18676,-1.47855 0.36223,-2.02775 1.76708,-1.76701 18.29807,-5.47119 24.41705,-5.47119 5.60731,0 5.93039,0.1532 5.93039,2.81542 0,2.3208 -0.34124,2.64028 -1.94346,1.81832 -3.67333,-1.88461 -12.94785,-1.29037 -20.58964,1.31926 -4.27909,1.46131 -7.81581,2.13001 -8.17674,1.54594 z m -61.465373,-0.54271 c 0,-0.67823 1.302931,-2.78158 2.895447,-4.67411 2.402966,-2.8558 2.768686,-4.11656 2.150236,-7.4131 -0.92294,-4.91974 0.93959,-4.17528 2.66972,1.06709 0.80149,2.42848 0.86692,5.16008 0.19267,8.03604 -0.92074,3.92672 -1.03263,4.03485 -1.13316,1.09515 l -0.11165,-3.26176 -3.331631,3.19191 c -1.832434,1.75554 -3.331634,2.63697 -3.331634,1.95878 z M 504.63294,871.33118 c 1.36995,-0.86675 1.29565,-1.8963 -0.52292,-7.24659 -1.73089,-5.09217 -2.53315,-6.17704 -4.3732,-5.9135 -1.89459,0.27111 -2.20641,1.03008 -1.95824,4.76489 0.6136,9.23512 2.28731,11.28506 6.85436,8.3952 z m 7.9158,-3.43682 c 2.76346,-1.47896 2.70931,-3.59142 -0.24375,-9.50425 -2.03158,-4.06789 -2.70064,-4.62391 -4.44216,-3.69186 -2.36822,1.26742 -2.57624,4.00391 -0.76406,10.05236 1.36871,4.5683 2.05188,4.96239 5.44997,3.14375 z m -362.2712,-11.72105 c 0.6992,0.43216 1.33035,2.88009 1.40263,5.43998 0.12423,4.39625 0.17838,4.46954 0.97915,1.32262 1.4532,-5.71102 1.21102,-14.4304 -0.46447,-16.72179 -0.86625,-1.18472 -1.78081,-1.90487 -2.03235,-1.60043 -1.14541,1.38629 -10.82497,20.06019 -10.78703,20.81043 0.0253,0.46385 2.2,-1.60454 4.83672,-4.59652 2.8303,-3.21157 5.31482,-5.11811 6.06535,-4.65429 z m 158.82482,2.13887 c 0.22626,-0.14902 -1.11634,-2.20034 -2.98371,-4.55806 -1.8673,-2.35768 -4.01717,-5.65195 -4.77747,-7.32055 -0.96287,-2.11328 -2.07942,-2.93421 -3.6796,-2.7054 -2.73475,0.39116 -2.69504,1.74925 0.36729,12.54447 1.21277,4.27557 2.23384,7.92418 2.26905,8.10794 0.0337,0.18374 1.93809,-1.04533 4.2286,-2.73138 2.29047,-1.68608 4.34969,-3.18772 4.57602,-3.33702 z m 214.01824,4.00994 3.68843,-2.27953 -2.16503,-3.55081 c -1.19075,-1.95291 -2.16689,-4.67519 -2.16916,-6.04948 -0.003,-2.98895 -1.28341,-3.13648 -5.31834,-0.61378 -1.65819,1.03676 -3.14517,1.95827 -3.30442,2.04789 -0.2409,0.13571 1.24784,4.81819 3.60479,11.33711 0.67759,1.87415 1.36364,1.76618 5.66373,-0.8914 z m -409.62281,-6.88238 c 2.47016,-2.59589 6.04524,-6.1774 7.94458,-7.9589 3.88333,-3.64238 4.14277,-5.76238 1.86903,-15.27273 -2.49275,-10.42648 -3.58498,-10.90215 -9.98449,-4.34849 -3.99751,4.09379 -4.26122,4.79204 -4.50966,11.93838 -0.14524,4.17466 -0.64236,10.46382 -1.10499,13.97595 -0.51761,3.92916 -0.43044,6.38561 0.22664,6.38561 0.5872,0 3.08877,-2.12389 5.55895,-4.71982 z m 1.40303,-27.48599 c 0,-0.6108 0.52925,-1.11052 1.1761,-1.11052 0.64685,0 0.86721,0.49972 0.4897,1.11052 -0.37734,0.61079 -0.90671,1.11056 -1.1761,1.11056 -0.26947,0 -0.4897,-0.49977 -0.4897,-1.11056 z m 416.23928,25.29372 c 0.18713,-1.56969 -0.44246,-4.72747 -1.39928,-7.0174 -1.67506,-4.00904 -1.81843,-4.09206 -3.86624,-2.23885 -1.95644,1.77059 -2.0022,2.27724 -0.57182,6.33153 0.85518,2.4237 1.86297,4.90535 2.23952,5.51464 1.16996,1.89303 3.24097,0.40208 3.59782,-2.58992 z M 293.69846,841.30146 c 0,-0.59917 1.28579,-1.41211 2.85739,-1.80656 3.44512,-0.86467 4.91642,-4.29401 4.91642,-11.45943 0,-5.0627 -0.13571,-5.30052 -2.73776,-4.80307 -1.50579,0.28793 -4.34776,-0.0378 -6.3155,-0.72385 -4.59604,-1.60218 -5.50382,-0.60663 -5.88413,6.45299 -0.19261,3.57416 -1.05161,6.52359 -2.30279,7.90611 -1.0976,1.21284 -1.67107,2.52977 -1.27433,2.92647 0.58497,0.58493 5.3264,1.76652 9.90777,2.46898 0.4581,0.0702 0.83293,-0.36263 0.83293,-0.96164 z m 17.26394,-21.62631 c 5.16862,-5.16861 2.80311,-18.37447 -3.29131,-18.37447 -0.86624,0 -2.36373,-0.30265 -3.32784,-0.67263 -1.55022,-0.5949 -1.66957,0.52859 -1.03276,9.71724 0.87489,12.62283 2.4448,14.53696 7.65191,9.32986 z m 24.22435,-7.05557 c 5.08585,-2.10076 8.37345,-6.3232 6.43363,-8.26296 -0.95588,-0.95591 -4.10309,-0.45855 -12.65868,2.00044 -11.05979,3.17877 -11.39607,3.37022 -11.71877,6.67106 l -0.33244,3.39832 6.99552,-1.01838 c 3.84754,-0.56015 8.92382,-1.81493 11.28058,-2.78848 z M 100.12394,748.76711 c 1.77203,-2.01826 3.87196,-5.39154 4.66651,-7.49617 0.79452,-2.10464 2.45796,-5.75595 3.69652,-8.11407 2.36599,-4.50459 2.30017,-9.86664 -0.22879,-18.62865 -1.21672,-4.21568 -6.08101,-7.40849 -9.366351,-6.1478 -3.781627,1.45119 -20.15493,26.28751 -17.329988,26.28751 0.623222,0 1.13311,-0.4997 1.13311,-1.11052 0,-0.61078 0.499776,-1.11053 1.110571,-1.11053 1.742522,0 1.309737,3.02964 -1.110571,7.77384 -2.632737,5.16062 -2.928059,9.99488 -0.610539,9.99488 0.885798,0 3.470563,-2.22521 5.74392,-4.94484 2.273358,-2.71969 4.547097,-4.68913 5.052706,-4.37666 0.505653,0.31271 0.919385,2.70427 0.919385,5.31504 0,7.40137 1.528168,8.01951 6.323447,2.55797 z m 18.04615,-65.18417 c 0.57301,0 1.35573,0.50784 1.73937,1.12864 1.16674,1.88779 2.76516,0.0379 2.76516,-3.20303 0,-1.6796 0.75179,-4.0239 1.67058,-5.20959 1.62597,-2.0981 1.74332,-2.06783 4.39305,1.13256 1.49733,1.80857 3.02129,2.98942 3.38654,2.62413 0.36517,-0.36516 0.83259,-5.59308 1.03851,-11.61733 0.44823,-13.11458 1.0858,-15.26157 4.0594,-13.67014 1.80725,0.96721 2.11009,0.7372 2.11009,-1.60227 0,-1.50232 -1.53661,-6.56905 -3.41474,-11.2594 -3.34066,-8.34302 -3.36794,-8.56063 -1.25732,-10.03894 1.18659,-0.83111 2.46082,-3.02829 2.83169,-4.88259 0.90214,-4.51066 2.33934,-4.24801 5.8591,1.0707 1.61682,2.44318 3.56169,4.44218 4.32196,4.44218 0.76022,0 1.9667,0.70428 2.68108,1.56498 1.06621,1.28471 15.10352,6.17191 34.03413,11.84932 4.40905,1.3223 10.7866,1.3208 9.96887,-0.003 -0.34838,-0.56381 -2.09253,-1.34554 -3.87573,-1.7372 -1.78319,-0.39163 -3.90138,-1.51109 -4.70706,-2.48772 -1.32202,-1.60241 -0.86913,-1.70493 4.64305,-1.0509 3.35942,0.39873 10.10598,1.97144 14.99238,3.49528 11.57784,3.61048 19.38044,4.69004 20.52408,2.83961 0.67584,-1.09354 3.00912,-0.88878 10.85099,0.95231 10.6313,2.49593 20.88392,3.1343 19.7051,1.22691 -1.41295,-2.28613 -8.12127,-4.88333 -20.45822,-7.92067 -6.97917,-1.71822 -13.20095,-3.63563 -13.82632,-4.26101 -1.66102,-1.66101 2.28614,-1.44883 8.82297,0.47421 3.01212,0.88621 8.47511,2.13199 12.13991,2.7685 3.66474,0.63651 9.16196,1.67082 12.21597,2.29849 3.05402,0.62767 6.96167,0.83373 8.68373,0.45799 2.91877,-0.6369 3.01014,-0.81666 1.34807,-2.65317 -0.98049,-1.08347 -5.38792,-3.56764 -9.79422,-5.52033 -17.11273,-7.5836 -20.78262,-9.39755 -20.78262,-10.27223 0,-1.4848 2.89925,-1.04433 9.02791,1.37131 3.17819,1.25273 7.31954,2.1015 9.20306,1.88616 3.17184,-0.36266 2.80165,-0.69153 -5.01508,-4.45529 -4.64183,-2.23497 -12.88763,-5.4094 -18.32397,-7.05417 -8.86573,-2.68237 -12.08727,-3.04229 -31.26229,-3.49297 -17.15403,-0.40338 -21.378,-0.80414 -21.378,-2.02928 0,-1.60396 1.78434,-2.16554 9.99492,-3.14603 7.4388,-0.88832 16.49866,-2.63569 17.78386,-3.42997 2.19571,-1.35701 -0.0836,-2.55091 -7.25305,-3.79943 -15.74948,-2.74266 -28.10979,-0.86699 -42.11499,6.3908 -4.31204,2.23463 -8.21494,4.23366 -8.67304,4.44232 -0.4581,0.20853 -0.83292,-0.6211 -0.83292,-1.84381 0,-1.31917 1.49719,-3.14835 3.68232,-4.49884 4.14445,-2.56138 8.05586,-6.52716 7.2412,-7.3418 -1.0126,-1.0126 -13.69279,2.88452 -18.44488,5.66889 -6.68606,3.9175 -19.13171,15.83249 -19.13171,18.31599 0,1.41505 -2.03675,3.10678 -6.38561,5.30399 -6.54691,3.30768 -11.19172,7.36223 -9.90641,8.64755 0.39748,0.3975 4.47767,-1.13307 9.06703,-3.40128 4.58937,-2.26819 8.84211,-3.81635 9.45047,-3.44033 1.94895,1.2045 1.19539,3.38391 -2.32717,6.7304 -5.32751,5.06127 -7.88428,11.04869 -8.23752,19.2906 -0.37231,8.68217 1.17227,30.81536 2.36608,33.90894 0.75232,1.94959 0.99963,1.8004 2.30068,-1.3882 0.80177,-1.9649 1.92657,-3.57248 2.49956,-3.57248 z M 487.4922,672.47148 c 1.08538,-1.75616 -1.33554,-1.27987 -3.256,0.64058 -0.95985,0.95984 -1.74513,1.97691 -1.74513,2.26016 0,0.79738 4.23296,-1.65785 5.00113,-2.90074 z m -1.11423,-5.54672 c 0.37733,-0.61081 0.18686,-1.11058 -0.42418,-1.11058 -0.61082,0 -1.41941,0.49977 -1.79693,1.11058 -0.37732,0.6108 -0.18687,1.11053 0.42418,1.11053 0.61084,0 1.41941,-0.49973 1.79693,-1.11053 z m -2.91176,-4.33506 c 0.84179,-0.53315 1.17208,-1.54923 0.73405,-2.25798 -0.60348,-0.9764 -1.17604,-0.97354 -2.36335,0.0103 -2.92771,2.42977 -1.5843,4.28167 1.6293,2.24617 z m -52.15274,-8.57417 c 1.44031,-1.29895 -0.88461,-1.10159 -3.24081,0.27539 l -2.77463,1.62126 2.77635,-0.73955 c 1.527,-0.40672 2.98457,-0.92736 3.23909,-1.15686 z m -46.64326,-9.24211 c 5.24292,-2.29695 15.52948,-6.0446 22.85909,-8.32811 7.32957,-2.2835 13.82622,-4.34385 14.43709,-4.57853 0.6108,-0.23463 -2.38769,-0.0729 -6.66325,0.35888 -4.2756,0.43213 -9.60013,0.79509 -11.83232,0.80654 -2.23223,0.0103 -3.86074,0.34082 -3.61899,0.73199 0.24167,0.39119 -1.38095,1.05263 -3.60592,1.47007 -8.88944,1.66769 -23.06658,7.64509 -26.15663,11.02823 -1.7022,1.86367 -3.09487,3.73657 -3.09487,4.16199 0,1.22512 7.32777,-1.1177 17.6758,-5.65114 z m 9.9807,2.55441 c 2.07889,-0.84293 3.51817,-1.79419 3.19836,-2.114 -0.55195,-0.55196 -11.91553,3.51335 -13.08385,4.68071 -0.8412,0.8406 5.61909,-0.83682 9.88549,-2.56671 z m 19.54164,-5.94561 2.22114,-0.95442 -2.22114,-0.061 c -1.22156,-0.0337 -2.97068,0.42337 -3.8869,1.01544 -1.48071,0.95689 -1.48071,1.06978 0,1.01549 0.91622,-0.0337 2.66534,-0.49053 3.8869,-1.01549 z M 579.18178,1037.591 c 0.56586,-1.9732 1.33006,-9.0945 1.69825,-15.8254 0.3681,-6.7307 1.58978,-16.4856 2.7148,-21.6774 1.12501,-5.19183 2.37578,-13.88463 2.77953,-19.31713 0.47425,-6.3828 1.08086,-9.3298 1.71446,-8.3292 1.60363,2.5325 1.1284,21.0338 -0.71015,27.64633 -0.93403,3.3594 -2.15853,13.8539 -2.72094,23.3213 -0.56242,9.4675 -1.04164,17.3384 -1.06485,17.4912 -0.0261,0.1529 -1.25674,0.2773 -2.74112,0.2773 -2.51343,0 -2.62816,-0.2463 -1.66998,-3.5874 z m 25.80196,-7.5182 c 0,-3.3593 0.20826,-4.7337 0.46264,-3.054 0.25446,1.6797 0.25446,4.4283 0,6.1081 -0.25446,1.6797 -0.46264,0.3054 -0.46264,-3.0541 z M 508.67822,926.19767 c -0.39538,-1.5745 -1.91686,-3.2758 -3.45201,-3.8595 -3.43176,-1.3047 -3.61338,-3.599 -0.24664,-3.1152 1.37427,0.1972 3.33725,-0.3924 4.36213,-1.3109 1.02488,-0.9185 3.39867,-2.5728 5.27505,-3.6763 2.65539,-1.5615 3.41168,-1.6687 3.41168,-0.4833 0,0.8376 -1.69166,2.3296 -3.75936,3.3157 -3.62066,1.7265 -3.73825,1.98 -3.18719,6.8688 0.61548,5.461 -1.17727,7.1471 -2.40366,2.2607 z m 5.42917,-1.8705 c -0.3899,-1.0161 -0.51988,-2.7511 -0.28878,-3.8558 0.38618,-1.8456 0.52243,-1.8235 1.68227,0.2729 0.76243,1.3779 0.8768,2.9044 0.28875,3.8558 -0.8144,1.3177 -1.08902,1.2732 -1.68224,-0.2729 z m 4.59516,-2.6232 c -0.37063,-0.9663 -0.67407,-2.179 -0.67407,-2.695 0,-1.0372 6.77277,-4.6934 7.44633,-4.0199 0.23253,0.2328 0.72898,2.3111 1.10357,4.6196 0.49146,3.0284 0.32362,3.9761 -0.60274,3.4038 -0.70612,-0.4364 -1.28391,-1.5137 -1.28391,-2.3938 0,-1.8192 -0.97811,-2.0019 -3.19626,-0.597 -0.84173,0.5332 -1.18703,1.5251 -0.76737,2.2041 0.41974,0.6792 0.28753,1.2348 -0.2942,1.2348 -0.5815,0 -1.36063,-0.7905 -1.73137,-1.7566 z M 344.78351,895.06382 c 0,-0.43137 2.03707,-2.99434 4.52688,-5.69535 4.93228,-5.35092 7.68912,-10.85702 7.68912,-15.35693 0,-1.83412 0.4492,-2.59999 1.23866,-2.11211 2.34844,1.45137 0.37649,10.06935 -3.39283,14.82867 -3.50665,4.42754 -10.06183,9.85818 -10.06183,8.33572 z m -6.66328,-6.40885 c 0,-0.42131 1.80391,-3.48287 4.00865,-6.80345 4.1636,-6.27082 4.3558,-7.93337 2.05808,-17.80512 l -0.7755,-3.33165 2.62947,2.53011 c 3.3347,3.20865 3.39003,10.01655 0.13309,16.34916 -2.11873,4.11948 -8.05362,10.79652 -8.05362,9.06095 z m 95.3839,-105.4007 c -0.32821,-6.67641 2.62865,-18.60161 4.6126,-18.60161 0.53873,0 0.67617,3.24836 0.30558,7.21854 l -0.67413,7.21857 h 3.21695 c 1.76931,0 8.46215,-1.49924 14.873,-3.33165 15.36217,-4.39093 21.3026,-4.41075 25.62796,-0.0855 3.18328,3.18329 4.51294,8.96975 2.06105,8.96975 -0.65179,0 -2.83471,-1.74909 -4.85096,-3.88686 -2.19865,-2.3313 -4.72451,-3.88603 -6.31106,-3.88468 -1.45483,0.001 -10.39127,1.99144 -19.85861,4.42258 -9.46744,2.43118 -17.58828,4.42911 -18.04636,4.43988 -0.4581,0.0103 -0.88824,-1.1048 -0.95586,-2.47908 z m 99.45651,-51.59489 c -1.61329,-7.34686 -1.14822,-7.36312 -6.63991,0.23201 -1.0007,1.38403 -0.74777,-0.0811 0.67107,-3.88691 2.28484,-6.12897 7.23042,-13.3568 9.70337,-14.18112 2.11855,-0.70619 1.53483,1.53971 -1.28235,4.93396 -2.36013,2.84357 -2.46943,3.45297 -1.16065,6.47083 1.73659,4.00437 1.94452,7.95107 0.46703,8.86424 -0.59292,0.36643 -1.38426,-0.72852 -1.75856,-2.43319 z m -118.8736,-5.99236 c -2.45919,-2.71738 -2.98806,-13.33689 -0.77445,-15.55057 3.54599,-3.54596 7.83412,6.17931 5.89689,13.37382 -1.38368,5.13862 -2.14806,5.46339 -5.12244,2.17675 z m 25.33987,-3.83327 c -2.14756,-1.50427 -2.46817,-2.73043 -2.46817,-9.43966 0,-6.87366 0.23253,-7.71083 2.14046,-7.71083 4.9303,0 8.11827,8.64016 6.04393,16.38055 -0.78747,2.93842 -2.32462,3.14549 -5.71622,0.76994 z m -10.70554,-23.66533 c -0.90413,-1.46296 2.6709,-4.08394 8.23737,-6.039 2.74857,-0.96539 7.19418,-2.55627 9.87904,-3.53535 2.68487,-0.97902 5.58346,-1.63251 6.44126,-1.45214 3.56346,0.74915 -1.69065,4.37764 -11.75165,8.11572 -11.31932,4.20566 -11.92119,4.34246 -12.80602,2.91077 z"
       id="path3322"
       inkscape:connector-curvature="0" />
  </g>
</svg>
