<?xml version="1.0" encoding="UTF-8" standalone="no"?>
<!-- Created with Inkscape (http://www.inkscape.org/) -->

<svg
   xmlns:dc="http://purl.org/dc/elements/1.1/"
   xmlns:cc="http://creativecommons.org/ns#"
   xmlns:rdf="http://www.w3.org/1999/02/22-rdf-syntax-ns#"
   xmlns:svg="http://www.w3.org/2000/svg"
   xmlns="http://www.w3.org/2000/svg"
   xmlns:sodipodi="http://sodipodi.sourceforge.net/DTD/sodipodi-0.dtd"
   xmlns:inkscape="http://www.inkscape.org/namespaces/inkscape"
   width="210mm"
   height="297mm"
   viewBox="0 0 210 297"
   version="1.1"
   id="svg8"
   inkscape:version="0.92.3 (2405546, 2018-03-11)"
   sodipodi:docname="Schach Logo Vektor.svg">
  <defs
     id="defs2" />
  <sodipodi:namedview
     id="base"
     pagecolor="#ffffff"
     bordercolor="#666666"
     borderopacity="1.0"
     inkscape:pageopacity="0.0"
     inkscape:pageshadow="2"
     inkscape:zoom="0.98994949"
     inkscape:cx="657.58255"
     inkscape:cy="714.65601"
     inkscape:document-units="mm"
     inkscape:current-layer="layer1"
     showgrid="false"
     inkscape:window-width="1600"
     inkscape:window-height="847"
     inkscape:window-x="-8"
     inkscape:window-y="-8"
     inkscape:window-maximized="1" />
  <metadata
     id="metadata5">
    <rdf:RDF>
      <cc:Work
         rdf:about="">
        <dc:format>image/svg+xml</dc:format>
        <dc:type
           rdf:resource="http://purl.org/dc/dcmitype/StillImage" />
        <dc:title></dc:title>
      </cc:Work>
    </rdf:RDF>
  </metadata>
  <g
     inkscape:label="Layer 1"
     inkscape:groupmode="layer"
     id="layer1">
    <path
       style="fill:#000000;stroke-width:0.12136003"
       d="M 71.910393,116.56935 V 66.569358 h 49.999997 50.00001 v 49.999992 50 H 121.91039 71.910393 Z m 25.578563,42.26119 v -6.04595 l 4.537154,-0.01 c 2.49543,-0.005 4.45493,-0.0388 4.35444,-0.0745 -0.10048,-0.0357 -0.86784,-0.39124 -1.70523,-0.79009 -2.35302,-1.12073 -4.52309,-2.41948 -6.354944,-3.80333 -0.380113,-0.28716 -0.722683,-0.5221 -0.761267,-0.5221 -0.03858,0 -0.07015,1.16989 -0.07015,2.59976 v 2.59976 h -6.090137 -6.090134 v -6.04595 -6.04595 h 2.618757 c 1.440317,0 2.618758,-0.0255 2.618758,-0.0567 0,-0.0312 -0.43332,-0.64331 -0.962933,-1.36034 -1.185102,-1.60448 -2.343948,-3.55213 -3.437705,-5.77769 l -0.831964,-1.69287 -0.0025,4.44377 -0.0025,4.44378 h -6.090134 -6.090134 v 6.04595 6.04595 h 6.090134 6.090134 v 6.04595 6.04594 h 6.090134 6.090134 z m 24.360534,1.52366 v -4.52229 l -1.55298,-0.0819 c -3.7241,-0.19648 -7.00265,-0.74689 -10.04872,-1.687 l -0.57856,-0.17856 v 5.49603 5.49603 h 6.09013 6.09013 z m 24.36055,-1.52366 v -6.04595 h 6.09013 6.09013 v 6.04595 6.04594 h 6.09014 6.09013 v -6.04594 -6.04595 h -6.09013 -6.09014 v -6.04595 -6.04595 h 6.09014 6.09013 v -6.04595 -6.04595 h -5.52547 -5.52548 l -0.20658,0.57436 c -0.11362,0.3159 -0.36771,0.99955 -0.56466,1.51922 l -0.35808,0.94486 v 4.52673 4.52673 h -2.65176 -2.65176 l -1.0066,1.1955 c -1.12761,1.33921 -3.79795,3.96395 -5.04848,4.96225 l -0.82166,0.65594 v 2.6391 2.63911 h -4.55982 -4.55981 l -0.95177,0.35548 c -0.52346,0.19551 -1.21211,0.44776 -1.53032,0.56056 l -0.57856,0.20508 v 5.48539 5.48538 h 6.09014 6.09014 z m -19.61025,-4.77126 c 2.28166,-0.30923 4.39887,-0.77059 6.51645,-1.41998 1.29666,-0.39765 3.57843,-1.2539 4.3849,-1.64547 0.26797,-0.13011 0.84349,-0.40499 1.27893,-0.61083 0.8306,-0.39265 0.89917,-0.43056 2.55786,-1.41412 0.56943,-0.33765 1.1703,-0.69192 1.33528,-0.78725 0.32396,-0.18721 1.57305,-1.07326 2.41351,-1.71205 1.89912,-1.4434 4.41518,-3.82571 5.79729,-5.48911 0.43544,-0.52406 0.95124,-1.14328 1.14621,-1.37605 0.19498,-0.23277 0.45682,-0.58646 0.58188,-0.78598 0.12506,-0.19951 0.4075,-0.58601 0.62764,-0.85888 0.22014,-0.27288 0.40026,-0.53514 0.40026,-0.58281 0,-0.0477 0.15783,-0.31441 0.35073,-0.59275 1.13306,-1.6349 2.77014,-4.89811 3.5897,-7.1554 1.70576,-4.69814 2.32837,-8.23486 2.33091,-13.24063 0.002,-3.60204 -0.23384,-5.71432 -0.98481,-8.82708 -0.54793,-2.27113 -1.59588,-5.33241 -2.33875,-6.83193 -0.13179,-0.26602 -0.41094,-0.83736 -0.62035,-1.269647 -0.54203,-1.11894 -1.43639,-2.68775 -1.9767,-3.46737 -0.1929,-0.27834 -0.35073,-0.54507 -0.35073,-0.59274 0,-0.0477 -0.18012,-0.30994 -0.40026,-0.58281 -0.22014,-0.27287 -0.50258,-0.65937 -0.62764,-0.85889 -0.23705,-0.37819 -0.39871,-0.57969 -1.74619,-2.17654 -1.04601,-1.23959 -3.10272,-3.28138 -4.35137,-4.3198 -1.60852,-1.3377 -1.81149,-1.49819 -2.19245,-1.73352 -0.20097,-0.12415 -0.59029,-0.40454 -0.86516,-0.62309 -0.27487,-0.21854 -0.53905,-0.39735 -0.58707,-0.39735 -0.048,0 -0.3167,-0.15668 -0.59707,-0.348175 -0.78532,-0.53639 -2.3656,-1.42427 -3.49272,-1.96237 -0.43544,-0.20788 -1.01096,-0.4838 -1.27893,-0.61313 -0.73566,-0.35509 -3.39776,-1.34901 -4.56761,-1.70537 -6.41676,-1.95469 -13.56724,-2.17516 -20.09744,-0.61968 -2.27065,0.54087 -5.35499,1.58229 -6.88185,2.32365 -0.26796,0.1301 -0.84348,0.40498 -1.27892,0.61083 -0.8306,0.39265 -0.89918,0.43056 -2.55786,1.41411 -0.56943,0.33765 -1.17031,0.691915 -1.33529,0.787255 -0.31889,0.18428 -1.570905,1.07156 -2.379694,1.68645 -2.474251,1.88108 -5.100129,4.4849 -6.976235,6.91765 -0.643456,0.83437 -1.535983,2.07439 -1.724561,2.396 -0.09603,0.16378 -0.452889,0.7603 -0.793011,1.3256 -0.990739,1.64665 -1.028928,1.71472 -1.424447,2.53929 -0.207352,0.432287 -0.484235,1.003627 -0.615294,1.269647 -0.747585,1.51743 -1.797261,4.58201 -2.340068,6.83193 -0.749821,3.10798 -0.986311,5.22447 -0.986311,8.82708 0,4.35678 0.4294,7.25769 1.673526,11.30593 0.391531,1.27399 1.250753,3.53691 1.652853,4.35308 0.131059,0.26602 0.409622,0.83736 0.619028,1.26965 0.542031,1.11894 1.436394,2.68776 1.976704,3.46737 0.1929,0.27834 0.350727,0.53905 0.350727,0.57936 0,0.0691 0.722475,1.0622 1.610854,2.21416 1.453951,1.88534 3.85367,4.38315 5.529223,5.75523 0.52789,0.43228 1.15164,0.94434 1.38611,1.1379 0.234471,0.19356 0.590743,0.4535 0.791718,0.57765 0.200974,0.12416 0.590298,0.40454 0.865163,0.62309 0.274865,0.21855 0.539045,0.39736 0.587065,0.39736 0.048,0 0.31671,0.15668 0.59708,0.34818 1.14189,0.77994 2.85357,1.69311 5.00927,2.67241 3.27671,1.48856 7.47368,2.61746 11.21183,3.01575 0.66991,0.0714 1.40986,0.15213 1.64433,0.17945 0.95895,0.11172 6.22418,-0.0453 7.55176,-0.22526 z m -4.01948,-1.23066 c -1.38886,-0.55813 -1.52254,-0.94586 -1.38634,-4.021 l 0.0836,-1.8876 0.44096,-0.44017 c 0.49152,-0.49064 1.10849,-0.70688 2.0197,-0.70789 0.78363,-8.5e-4 1.36647,0.16781 1.7204,0.49789 0.32345,0.30166 0.60877,1.04996 0.45394,1.1905 -0.0575,0.0522 -0.52929,0.13104 -1.04847,0.17529 l -0.94397,0.0804 v -0.35299 c 0,-0.19415 -0.0881,-0.42562 -0.19589,-0.51438 -0.16643,-0.13713 -0.22137,-0.12679 -0.36541,0.0688 -0.0932,0.12659 -0.16636,0.36939 -0.16249,0.53957 0.008,0.3521 0.20119,1.34607 0.22257,1.14503 0.024,-0.22602 0.60671,-0.4124 1.28932,-0.4124 1.17168,0 1.48049,0.46033 1.70349,2.5393 0.14968,1.39543 -0.64377,2.06202 -2.53776,2.13202 -0.61103,0.0226 -1.19317,0.008 -1.29366,-0.0324 z m 1.44631,-0.99943 c 0.12918,-0.0812 0.15571,-0.37057 0.1162,-1.26732 -0.0548,-1.24378 -0.18991,-1.56305 -0.56099,-1.32567 -0.17903,0.11452 -0.204,0.30018 -0.17025,1.26543 0.0455,1.30256 0.18299,1.59925 0.61504,1.32756 z m -7.43308,0.78758 c -0.97632,-0.26107 -1.48931,-0.72472 -1.62743,-1.47091 -0.11416,-0.61675 0.006,-0.66773 1.19574,-0.50669 l 1.0631,0.14392 -0.0274,0.40366 c -0.0352,0.51869 0.33349,0.8113 0.60396,0.47934 0.17979,-0.22068 0.32674,-1.66264 0.16943,-1.66264 -0.0696,0 -0.16045,0.0544 -0.20185,0.12092 -0.11193,0.17979 -1.24164,0.14627 -1.62022,-0.0481 -0.8528,-0.4378 -0.97836,-1.05644 -0.57245,-2.82054 0.30877,-1.34192 0.89863,-1.70764 2.54286,-1.57662 0.93716,0.0747 1.70808,0.45109 1.9867,0.97 0.17616,0.32812 0.2063,0.68663 0.18543,2.20559 -0.0345,2.51431 -0.0947,2.89181 -0.52937,3.32334 -0.59951,0.59516 -1.90661,0.77614 -3.16852,0.43871 z m 1.48336,-3.46586 c 0.17216,-0.31934 0.22111,-2.43435 0.0576,-2.48874 -0.32231,-0.10723 -0.46387,0.21814 -0.5846,1.34368 -0.10491,0.97798 -0.0971,1.19051 0.0467,1.28091 0.25494,0.16021 0.3325,0.13827 0.48028,-0.13585 z m 10.15799,2.80782 c -0.61223,-0.28578 -0.86213,-0.76614 -0.97684,-1.8777 -0.0757,-0.73342 -0.056,-0.85547 0.19111,-1.18734 0.2232,-0.29971 0.24387,-0.38978 0.10891,-0.47465 -0.0916,-0.0576 -0.20626,-0.10559 -0.25478,-0.10661 -0.0485,-9.6e-4 -0.17185,-0.16238 -0.27406,-0.3586 -0.23676,-0.45453 -0.2395,-1.48692 -0.005,-1.93684 0.27949,-0.53655 1.31151,-0.97959 2.46461,-1.05805 0.9133,-0.0622 0.97041,-0.0505 1.36298,0.2774 0.72684,0.60716 0.96616,1.67049 0.50652,2.25058 l -0.2355,0.29722 0.40651,0.14593 c 0.52316,0.18781 0.9251,0.99913 1.01014,2.03902 0.0595,0.72736 0.0482,0.76478 -0.35074,1.15963 -0.84502,0.83647 -2.97981,1.28463 -3.95372,0.83001 z m 2.06105,-1.53607 c -0.0207,-0.65977 -0.27693,-1.52798 -0.46837,-1.58695 -0.067,-0.0206 -0.20203,0.0128 -0.30009,0.0743 -0.15283,0.0959 -0.15669,0.23677 -0.027,0.98729 0.16272,0.94202 0.31472,1.22751 0.62044,1.16536 0.14921,-0.0303 0.18956,-0.17786 0.17507,-0.64001 z m -0.68604,-3.17012 c -0.10142,-0.84563 -0.28285,-1.23942 -0.57104,-1.23942 -0.29171,0 -0.32791,0.41883 -0.11036,1.27657 0.11613,0.45781 0.18165,0.53722 0.44328,0.53722 0.29473,0 0.30426,-0.023 0.23812,-0.57437 z m -17.35237,4.54272 c -0.55268,-0.13091 -1.00543,-0.30195 -1.00612,-0.38009 -7.3e-4,-0.0781 0.25386,-1.10264 0.56567,-2.27666 0.31181,-1.17402 0.53165,-2.22585 0.48854,-2.33739 -0.0431,-0.11154 -0.29672,-0.28794 -0.56357,-0.392 -0.43236,-0.1686 -0.47691,-0.22349 -0.40925,-0.50421 0.0418,-0.17325 0.0892,-0.33127 0.10537,-0.35116 0.0162,-0.0199 0.40621,-0.0524 0.86671,-0.0724 0.4605,-0.0199 1.00404,-0.12181 1.20786,-0.22644 0.29749,-0.15272 0.48352,-0.16633 0.94319,-0.069 0.31494,0.0667 0.57261,0.14005 0.57261,0.16304 0,0.023 -0.30146,1.50921 -0.66991,3.30272 -0.36845,1.79351 -0.66992,3.29387 -0.66992,3.33414 0,0.11321 -0.33942,0.068 -1.43118,-0.19059 z m 29.324,-7.19557 c -0.70002,-0.0525 -3.16203,-0.39113 -3.43647,-0.47272 -0.19344,-0.0575 -0.19013,-0.10797 0.0452,-0.69012 0.13962,-0.34544 0.44612,-1.19942 0.68112,-1.89773 0.23499,-0.69831 0.46724,-1.31361 0.5161,-1.36734 0.0735,-0.0809 3.0467,4.26298 3.0467,4.45125 0,0.033 -0.0685,0.0505 -0.15225,0.0389 -0.0837,-0.0116 -0.3989,-0.0396 -0.70037,-0.0622 z m -41.34751,-0.4166 c 0.4172,-0.70886 3.04278,-4.45134 3.06886,-4.37434 0.0182,0.0539 0.32998,0.96855 0.69273,2.0326 0.36275,1.06405 0.64101,1.95304 0.61835,1.97553 -0.0624,0.0619 -2.30065,0.3513 -3.45637,0.4469 -0.84537,0.0699 -1.00406,0.0561 -0.92357,-0.0807 z m 19.17942,-0.0554 c -4.34621,-0.50812 -6.94365,-1.2518 -10.29233,-2.94682 -1.81349,-0.91795 -3.22583,-1.80955 -4.88151,-3.08164 -1.05296,-0.80902 -3.48482,-3.22843 -4.321034,-4.29891 -5.246113,-6.71587 -7.203981,-15.0026 -5.454836,-23.08775 0.285131,-1.31798 0.966842,-3.60344 1.316128,-4.41238 0.132083,-0.30591 0.241358,-0.58292 0.242832,-0.61558 0.0156,-0.34557 2.528176,-4.73694 2.872722,-5.02081 0.09734,-0.0802 0.178444,-0.20717 0.180234,-0.28216 0.0018,-0.075 0.207334,-0.3632 0.45676,-0.64047 0.249428,-0.277267 0.563124,-0.646007 0.697114,-0.819417 0.62133,-0.80417 3.38869,-3.48207 4.26309,-4.12527 0.53593,-0.39422 1.00183,-0.74427 1.03532,-0.77787 0.0335,-0.0336 0.14863,-0.11551 0.25584,-0.18202 0.10721,-0.0665 0.43608,-0.28042 0.73082,-0.47536 1.07353,-0.71006 3.61061,-2.01819 4.79897,-2.47438 1.28934,-0.49496 3.872,-1.2618 4.95531,-1.47134 3.9912,-0.77197 9.32399,-0.56652 12.94968,0.4989 6.53321,1.91981 11.5659,5.49467 15.5109,11.017837 0.41237,0.57734 0.74977,1.08587 0.74977,1.13006 0,0.0442 0.10162,0.22479 0.22583,0.40132 0.2556,0.36327 1.18241,2.15579 1.64201,3.17578 1.75564,3.89624 2.57626,9.1234 2.10508,13.40879 -0.34121,3.10324 -0.62314,4.36306 -1.56948,7.0133 -1.29144,3.61671 -3.36037,6.85066 -6.29242,9.83569 -4.19461,4.27042 -9.33898,6.91551 -15.47309,7.95584 -1.34967,0.2289 -5.60416,0.40321 -6.70371,0.27466 z m 5.54202,-1.27555 c 3.7128,-0.42073 7.55811,-1.75196 10.71863,-3.71075 1.64504,-1.01953 1.85071,-1.16481 3.11571,-2.20078 4.08055,-3.3418 7.13282,-7.95241 8.58862,-12.97357 1.89056,-6.52066 1.25634,-13.43909 -1.7819,-19.43801 -0.44991,-0.88834 -1.89055,-3.23424 -2.07375,-3.37684 -0.0427,-0.0333 -0.0996,-0.12353 -0.12638,-0.20061 -0.10621,-0.30555 -2.10786,-2.594087 -3.05923,-3.497697 -1.15892,-1.10074 -2.82065,-2.46856 -2.999,-2.46856 -0.0667,0 -0.13949,-0.0421 -0.16182,-0.0936 -0.0699,-0.16113 -2.35891,-1.5682 -3.38123,-2.07849 -2.26303,-1.12957 -5.097,-2.05482 -7.56165,-2.46875 -0.87824,-0.1475 -3.86472,-0.4275 -4.65802,-0.43671 -0.0502,-5.9e-4 -0.0913,0.97838 -0.0913,2.17548 0,2.41216 -0.0402,2.54354 -0.8318,2.71613 -0.20317,0.0443 -0.44095,0.16613 -0.52839,0.27074 -0.1345,0.16088 -0.11703,0.21785 0.11338,0.36973 0.21296,0.14037 0.27239,0.29504 0.27239,0.70893 v 0.52939 h -0.66992 -0.66991 v 0.96735 0.96735 h 0.66991 c 0.62766,0 0.66992,0.0185 0.66992,0.29292 0,0.2285 -0.0954,0.32417 -0.43367,0.435 -0.68397,0.2241 -1.36795,0.945887 -1.46453,1.545507 -0.0642,0.39848 -0.16709,0.55943 -0.4807,0.75184 -0.6304,0.38678 -1.26412,1.16237 -1.41877,1.73636 l -0.14198,0.52702 -0.95677,0.13433 c -1.44905,0.20343 -1.84301,0.49975 -0.98056,0.73753 0.25121,0.0693 0.66026,0.12623 0.90898,0.1266 0.41715,6.1e-4 0.49152,0.0581 0.95904,0.7416 0.72409,1.05852 1.50769,2.78136 1.80465,3.96771 0.32794,1.31016 0.32389,1.43658 -0.049,1.5295 -0.54148,0.13492 -0.26156,0.49659 0.47634,0.61546 0.37906,0.0611 0.43718,0.11483 0.43718,0.40443 0,0.1837 -0.0791,0.36414 -0.17582,0.40098 -0.11287,0.043 -0.15562,0.17749 -0.11942,0.37569 0.0529,0.28963 0.0257,0.30872 -0.43961,0.30872 -0.68511,0 -2.14209,0.34302 -2.30998,0.54384 -0.20604,0.24646 0.26835,0.50333 1.21779,0.65939 0.43544,0.0716 0.92874,0.15256 1.09622,0.17998 0.16748,0.0274 0.49635,0.0539 0.73082,0.0588 l 0.4263,0.009 -0.089,2.02545 c -0.0853,1.94038 -0.24102,3.38333 -0.64934,6.01577 -0.28328,1.8263 -0.6822,3.68803 -0.79024,3.68803 -0.20048,0 -1.43081,1.22069 -1.57244,1.56012 -0.13136,0.31483 -0.24984,0.3775 -1.04649,0.55345 -1.52993,0.33791 -1.8076,0.86147 -0.67801,1.27842 l 0.50834,0.18764 -0.46904,0.71925 c -0.51654,0.79208 -1.07907,1.3288 -1.88271,1.79635 -0.51107,0.29733 -0.53228,0.33407 -0.67711,1.17252 -0.17166,0.9938 -0.61143,2.35578 -1.05616,3.27096 -0.16867,0.3471 -0.30667,0.83857 -0.30667,1.09214 v 0.46105 h 5.29841 5.29842 v 2.2999 2.2999 l 1.18758,-0.0698 c 0.65315,-0.0384 1.68086,-0.1257 2.28379,-0.19402 z m -3.13642,-4.3023 -0.33495,-0.0497 v -22.05968 c 0,-23.078427 -0.0129,-22.476577 0.47085,-21.897877 0.0744,0.089 0.35516,0.22722 0.62392,0.30716 0.53142,0.15806 0.63248,0.41347 0.24505,0.61931 -0.18776,0.0998 -0.2436,0.25318 -0.2436,0.66931 v 0.53988 h 0.60901 0.60901 v 0.96735 0.96735 h -0.60901 c -0.57042,0 -0.60901,0.0194 -0.60901,0.30609 0,0.18638 0.0834,0.33127 0.21315,0.37047 0.93125,0.28123 1.47521,0.840727 1.58138,1.626557 0.0355,0.26291 0.10725,0.47802 0.15941,0.47802 0.0521,0 0.37254,0.21792 0.71196,0.48428 0.6344,0.49782 0.97192,0.99636 1.10477,1.6318 0.0715,0.34214 0.11734,0.36733 0.80618,0.44329 1.18176,0.1303 1.56933,0.26361 1.61219,0.55455 0.0404,0.27407 0.0136,0.28312 -1.34707,0.45523 -0.39668,0.0502 -0.61794,0.14676 -0.70465,0.30762 -0.0695,0.12896 -0.0971,0.23447 -0.0612,0.23447 0.0358,0 -0.0384,0.10279 -0.16489,0.22841 -0.6005,0.59614 -1.80931,3.28725 -1.89313,4.21455 -0.02,0.22076 -0.0711,0.43595 -0.11366,0.47821 -0.0426,0.0422 -0.0774,0.20275 -0.0774,0.35666 0,0.19765 0.0894,0.30212 0.3045,0.35571 0.62025,0.15455 0.20773,0.65425 -0.5401,0.65425 -0.33371,0 -0.37342,0.0386 -0.37342,0.36276 0,0.23436 0.0618,0.36275 0.17462,0.36275 0.0999,0 0.19109,0.1422 0.21315,0.33253 0.0373,0.32185 0.0684,0.33522 0.96998,0.4164 1.06738,0.0961 1.80912,0.35918 1.80912,0.64164 0,0.31171 -0.77199,0.54651 -2.27865,0.69305 l -1.40411,0.13657 0.0829,1.45943 c 0.17586,3.09491 0.66709,6.79247 1.22633,9.23065 0.16816,0.73314 0.25644,0.90699 0.53259,1.04875 0.39856,0.20462 1.30533,1.16001 1.4967,1.57697 0.14439,0.31459 0.22525,0.35337 1.01413,0.4863 0.26796,0.0452 0.6691,0.15752 0.89142,0.2497 0.33741,0.13989 0.3978,0.22228 0.36541,0.49851 -0.0307,0.26194 -0.14038,0.36781 -0.52602,0.50781 -0.26796,0.0973 -0.50473,0.18916 -0.52616,0.20419 -0.0214,0.015 0.0697,0.23882 0.20258,0.49731 0.32105,0.62475 1.09192,1.39895 1.91053,1.91882 0.49617,0.31509 0.6664,0.49551 0.6664,0.70627 0,0.5542 0.59385,2.5948 1.02426,3.51962 0.26288,0.56484 0.43737,1.12595 0.43737,1.40642 v 0.46665 h -4.80124 c -2.64068,0 -4.87424,0.0188 -4.96345,0.0417 -0.0892,0.0229 -0.31295,0.0193 -0.49718,-0.008 z m -30.115712,-1.70841 c -1.003224,-0.61169 -1.982366,-2.1248 -2.098627,-3.24309 -0.05956,-0.57285 -0.03227,-0.69023 0.223681,-0.96224 0.160331,-0.17038 0.44061,-0.3868 0.62284,-0.48092 0.371094,-0.19167 0.264868,-0.29456 1.061555,1.02814 l 0.393107,0.65266 -0.328156,0.25976 c -0.381903,0.30231 -0.371046,0.71336 0.02031,0.76905 0.546007,0.0777 0.653402,-0.23511 0.653402,-1.90324 0,-1.79075 0.06655,-1.93974 1.139207,-2.55049 0.761807,-0.43376 1.181196,-0.4495 1.835421,-0.0689 0.9137,0.53158 1.653873,1.80834 1.653873,2.85284 0,0.56317 -0.0432,0.65454 -0.544906,1.15261 -0.299699,0.29753 -0.587458,0.53872 -0.639464,0.53599 -0.05201,-0.003 -0.361922,-0.36397 -0.6887,-0.80274 -0.512591,-0.68827 -0.56683,-0.81295 -0.39516,-0.90832 0.10944,-0.0608 0.349398,-0.24041 0.533241,-0.39913 0.274863,-0.23729 0.310295,-0.32747 0.199401,-0.50751 -0.210171,-0.34119 -0.481006,-0.32393 -0.911738,0.0581 l -0.396288,0.35152 0.150175,1.39535 c 0.179712,1.6698 0.07511,2.04787 -0.725941,2.62394 -0.602791,0.4335 -1.204344,0.48367 -1.757234,0.14656 z m 57.875542,-2.50187 c -1.32924,-1.35726 -2.39805,-2.51009 -2.37515,-2.56183 0.18597,-0.42012 1.49578,-2.45142 1.58072,-2.45142 0.0596,0 0.9161,0.23723 1.90338,0.52717 0.98728,0.28994 2.42538,0.67805 3.19578,0.86247 0.77041,0.18442 1.44588,0.37562 1.50105,0.42489 0.0969,0.0865 -0.90949,2.21966 -1.10172,2.33517 -0.0521,0.0313 -1.02349,-0.34502 -2.15852,-0.83633 -1.13504,-0.49131 -2.01202,-0.84523 -1.94885,-0.78647 0.0632,0.0588 0.69038,0.55697 1.39379,1.10715 0.70341,0.55019 1.45285,1.14935 1.66541,1.33149 l 0.38648,0.33116 -0.75008,1.10014 c -0.41255,0.60508 -0.7783,1.09655 -0.81279,1.09215 -0.0345,-0.004 -1.15026,-1.11847 -2.4795,-2.47574 z m -3.4538,-0.13141 -0.51127,-0.42867 0.45037,-0.58729 c 0.24771,-0.32301 0.4973,-0.59039 0.55465,-0.59418 0.0573,-0.004 0.31733,0.16063 0.57772,0.36538 0.5298,0.41656 0.52423,0.45938 -0.1596,1.22495 l -0.4006,0.44847 z m -58.255232,-4.96847 c -1.574687,-0.80281 -2.317019,-4.3529 -1.07864,-5.15843 0.156657,-0.1019 0.626374,-0.26437 1.043816,-0.36105 l 0.758986,-0.17577 0.115847,0.44233 c 0.4152,1.58533 0.478974,1.89693 0.40105,1.95956 -0.04797,0.0386 -0.400525,0.16405 -0.783443,0.2789 -0.775445,0.23256 -0.937278,0.38254 -0.684035,0.63395 0.146941,0.14587 0.462923,0.079 2.237311,-0.4738 1.436104,-0.44738 2.077546,-0.70209 2.103399,-0.83525 0.05881,-0.30294 -0.130468,-0.3367 -0.838709,-0.14957 -0.363065,0.0959 -0.722498,0.17505 -0.798741,0.17584 -0.139316,10e-4 -0.733953,-2.13514 -0.624482,-2.24382 0.107834,-0.10705 1.647253,-0.20666 1.966095,-0.12722 1.200504,0.29912 2.17557,2.65956 1.597873,3.86813 -0.260955,0.54594 -0.742114,0.83784 -2.693933,1.63433 -1.82989,0.74673 -2.170443,0.81327 -2.722394,0.53187 z m 62.788942,-2.53 c -0.26635,-0.0939 -0.52554,-0.21172 -0.57598,-0.2618 -0.0699,-0.0694 0.20404,-1.23171 0.34244,-1.4528 0.036,-0.0575 1.06656,0.2465 1.18799,0.35043 0.0983,0.0842 -0.22748,1.29044 -0.39381,1.45799 -0.042,0.0423 -0.2943,1e-4 -0.56064,-0.0938 z m 3.37339,-1.30164 c -0.35374,-0.088 -0.66289,-0.18102 -0.68701,-0.20671 -0.0241,-0.0257 0.0809,-0.59086 0.23338,-1.25591 0.15248,-0.66506 0.24239,-1.24366 0.1998,-1.28579 -0.11414,-0.11289 -1.61576,-0.3512 -1.73849,-0.2759 -0.36479,0.22381 0.25472,0.6548 0.94122,0.6548 0.15353,0 0.30866,0.0474 0.34475,0.10537 0.0361,0.058 -0.0256,0.5226 -0.13707,1.03253 l -0.20267,0.92714 -0.3734,-0.0799 c -1.2446,-0.2664 -1.86856,-1.10818 -1.72434,-2.32631 0.11629,-0.98232 0.5664,-1.89121 1.06276,-2.14603 0.34308,-0.17613 0.64255,-0.197 2.01007,-0.14008 2.47373,0.10297 2.90789,0.4327 2.90505,2.20632 -0.001,0.83376 -0.0525,1.07013 -0.36541,1.68746 -0.57861,1.14159 -1.19911,1.41884 -2.46864,1.10304 z m 1.80028,-2.26453 c 0,-0.15274 -0.59861,-0.36565 -0.90554,-0.32208 -0.4217,0.0599 -0.29711,0.39138 0.17472,0.46491 0.47512,0.074 0.73082,0.0241 0.73082,-0.14283 z m -69.427538,-7.1434 c -0.167479,-0.0859 -0.441535,-0.42833 -0.609014,-0.76086 -0.595774,-1.1829 -0.301056,-3.92701 0.52167,-4.85725 0.320066,-0.36189 0.42211,-0.40272 1.006294,-0.40272 0.357559,0 0.673639,0.0408 0.702401,0.0907 0.02876,0.0499 -0.03048,0.62388 -0.131658,1.27555 -0.183154,1.17972 -0.185325,1.18456 -0.501864,1.11871 -0.442333,-0.092 -0.64932,0.0768 -0.601724,0.49069 0.02968,0.25811 0.113701,0.35998 0.320964,0.38915 0.380347,0.0535 0.554452,-0.11308 1.261308,-1.20701 0.689817,-1.06757 1.256969,-1.61452 1.796019,-1.73205 0.541513,-0.11808 1.703352,0.1546 2.026767,0.47567 0.432787,0.42965 0.603508,1.48946 0.438903,2.72463 -0.243129,1.82439 -0.845204,2.54025 -2.136838,2.54066 l -0.596177,2.4e-4 0.07765,-0.81621 c 0.04271,-0.44891 0.07804,-0.96299 0.07851,-1.14241 8.53e-4,-0.30814 0.03629,-0.32823 0.64033,-0.36275 0.603507,-0.0345 0.641712,-0.0561 0.679438,-0.38381 0.05013,-0.43555 -0.08479,-0.57192 -0.579692,-0.58589 -0.5162,-0.0146 -0.778512,0.26227 -1.539372,1.62462 -0.341249,0.61103 -0.764438,1.21767 -0.940418,1.34811 -0.396663,0.294 -1.485313,0.39203 -1.9135,0.1723 z m 68.427828,-4.79309 c -0.10268,-0.25949 -0.28883,-0.49233 -0.42107,-0.52666 -0.13037,-0.0339 -0.96614,0.0831 -1.85727,0.25976 -1.0497,0.20817 -1.6332,0.27653 -1.65704,0.19414 -0.14252,-0.49249 -0.42795,-1.79549 -0.39894,-1.82122 0.0196,-0.0174 1.18665,-0.34003 2.59347,-0.71703 1.40682,-0.377 2.64364,-0.71018 2.74849,-0.74042 0.14978,-0.0432 0.23668,0.14608 0.40554,0.88321 0.11819,0.516 0.24106,1.03159 0.27304,1.14576 0.0412,0.14707 -0.0354,0.23089 -0.2629,0.28757 l -0.32104,0.08 0.33636,0.21905 c 0.29968,0.19516 0.64122,0.64291 0.65297,0.85603 0.004,0.0753 -1.34279,0.34494 -1.72287,0.34494 -0.10158,0 -0.26752,-0.2093 -0.36874,-0.46512 z m -63.98203,-3.93638 c -1.715634,-0.48635 -1.832372,-0.50435 -1.914468,-0.29522 -0.09236,0.23528 -0.22849,0.26499 -0.672671,0.14681 -0.211273,-0.0562 -0.25728,-0.13434 -0.203763,-0.34603 0.05658,-0.22379 0.0011,-0.29696 -0.305674,-0.40313 -0.206141,-0.0713 -0.374801,-0.17055 -0.374801,-0.22048 0,-0.0499 0.176495,-0.62532 0.39221,-1.27866 0.283744,-0.85938 0.438454,-1.17028 0.559427,-1.12419 0.581441,0.2215 0.691846,0.19376 0.875404,-0.21993 0.180068,-0.40583 0.188336,-0.40941 0.573127,-0.24782 0.388324,0.16307 0.389489,0.16617 0.216439,0.57734 -0.157711,0.37472 -0.154355,0.42112 0.03588,0.49612 1.195672,0.4714 3.121101,1.14982 3.263283,1.14982 0.09877,0 0.244317,-0.14963 0.323436,-0.33252 0.07912,-0.18289 0.158404,-0.35346 0.176188,-0.37904 0.04562,-0.0656 0.770959,0.24219 0.770959,0.32716 0,0.0385 -0.1724,0.5234 -0.383114,1.07764 -0.387401,1.01899 -0.870541,1.6121 -1.301018,1.59715 -0.112095,-0.004 -1.025977,-0.24015 -2.030849,-0.52502 z m 58.80986,-1.15365 c -0.77857,-0.47128 -1.38193,-2.00354 -1.14007,-2.89523 0.16109,-0.59387 0.45176,-0.84845 1.79775,-1.57449 1.43955,-0.7765 1.9593,-0.92099 2.50252,-0.69566 0.88837,0.36849 1.67366,1.72878 1.67245,2.89703 -9.7e-4,0.88581 -0.25827,1.25653 -1.16456,1.67756 -0.42986,0.19969 -0.84196,0.3431 -0.91577,0.31867 -0.0738,-0.0244 -0.32571,-0.50533 -0.55977,-1.06867 -0.23405,-0.56334 -0.46911,-1.06923 -0.52234,-1.12421 -0.10184,-0.10517 -1.51498,0.54914 -1.64821,0.76316 -0.13094,0.21033 0.31794,0.29188 0.71717,0.1303 0.85046,-0.34422 0.86427,-0.33822 1.2132,0.52707 0.177,0.43893 0.32182,0.84657 0.32182,0.90587 0,0.17186 -0.7174,0.37336 -1.32755,0.37286 -0.3389,-2.4e-4 -0.71305,-0.0929 -0.94664,-0.23426 z m 3.49563,-2.97372 c 0.25469,-0.30466 0.0148,-0.4068 -0.49153,-0.20933 -0.44712,0.17436 -0.59437,0.36812 -0.41505,0.54614 0.10077,0.10004 0.73988,-0.13741 0.90658,-0.33681 z m -60.149984,-1.37966 c -1.710399,-0.83566 -1.91448,-1.0559 -1.906693,-2.05757 0.0096,-1.230427 1.231536,-2.958897 2.298628,-3.251407 0.547344,-0.15003 0.998259,-0.0304 1.792378,0.47548 0.566326,0.36077 0.591137,0.39789 0.42774,0.6399 -1.119163,1.6576 -1.38406,2.082997 -1.34126,2.153967 0.121438,0.20135 1.410682,0.83967 1.571892,0.77826 0.306103,-0.11661 0.199656,-0.30266 -0.430184,-0.75187 l -0.608607,-0.434067 0.62301,-0.89468 0.623009,-0.89467 0.476475,0.37463 c 0.599531,0.4714 0.83527,0.91968 0.831916,1.58197 -0.0063,1.238287 -1.470804,2.998747 -2.494675,2.998747 -0.233318,0 -0.989604,-0.29165 -1.863629,-0.71869 z m 0.574548,-2.714937 c 0.113124,-0.13531 0.05505,-0.22162 -0.292684,-0.43497 -0.441591,-0.27094 -0.83781,-0.25734 -0.728672,0.025 0.05487,0.14194 0.620082,0.54116 0.803794,0.56773 0.04204,0.006 0.139944,-0.0649 0.217562,-0.15776 z M 146.04176,99.8963 c -0.34514,-0.480157 -0.53348,-0.855127 -0.48827,-0.972087 0.0493,-0.12743 0.005,-0.1904 -0.13432,-0.1904 -0.11435,0 -0.39427,-0.18501 -0.62205,-0.41112 -0.46791,-0.46452 -0.55177,-1.03284 -0.22149,-1.50097 0.30748,-0.43579 3.12904,-2.80385 3.43336,-2.88152 0.64005,-0.16335 1.49598,0.53284 1.73401,1.4104 l 0.12889,0.47521 0.58742,-0.41896 c 0.5512,-0.39312 0.59868,-0.40599 0.76998,-0.20864 0.28688,0.33051 1.21911,1.73715 1.17315,1.77015 -0.0228,0.0163 -1.21981,0.78183 -2.66013,1.70112 -1.44031,0.91929 -2.73574,1.747267 -2.87871,1.839967 -0.24536,0.15907 -0.29153,0.12462 -0.82184,-0.61315 z m 1.78401,-2.565467 c 1.27974,-0.93135 1.69811,-1.37816 1.29047,-1.37816 -0.16286,0 -2.63522,1.81248 -2.96333,2.1724 -0.2181,0.23925 -0.21783,0.24598 0.01,0.24598 0.12864,0 0.87708,-0.4681 1.66321,-1.04022 z m -48.570675,-1.03844 c -0.133983,-0.0751 -0.861859,-0.679 -1.617502,-1.34192 -1.290893,-1.1325 -1.387124,-1.19344 -1.592825,-1.00863 -0.203749,0.18305 -0.238518,0.17599 -0.501471,-0.10189 -0.243793,-0.25762 -0.259753,-0.32583 -0.116372,-0.49734 0.144507,-0.17286 0.12155,-0.23688 -0.176086,-0.49104 l -0.34226,-0.29226 0.9171,-0.93132 0.9171,-0.93131 0.312188,0.29115 0.312186,0.29116 0.281906,-0.26292 c 0.353446,-0.32963 0.458405,-0.32557 0.716921,0.0277 0.199099,0.27211 0.195423,0.29396 -0.09507,0.56489 l -0.302183,0.28183 1.311023,1.30556 c 0.72106,0.71805 1.37198,1.30556 1.44648,1.30556 0.0745,0 0.23542,-0.10968 0.35762,-0.24372 l 0.22217,-0.24371 0.28392,0.26479 c 0.15615,0.14563 0.28392,0.30587 0.28392,0.35607 0,0.15917 -1.46299,1.49275 -1.80425,1.64467 -0.40822,0.18171 -0.510186,0.1833 -0.814511,0.0126 z m 42.271015,-1.59434 -0.72535,-0.64416 0.42084,-0.48155 c 0.23146,-0.26486 1.26617,-1.43931 2.29936,-2.60991 l 1.87852,-2.12834 0.9001,0.79974 0.9001,0.79974 -2.473,2.45725 c -1.36015,1.35149 -2.4735,2.45594 -2.47412,2.45432 -6.1e-4,-0.002 -0.32752,-0.2928 -0.72645,-0.64709 z M 102.961,92.365203 c -0.23946,-0.25482 -0.83342,-0.96649 -1.31991,-1.58149 -0.73792,-0.93285 -0.92874,-1.10717 -1.15128,-1.05172 -0.18475,0.046 -0.35395,-0.0257 -0.550352,-0.23321 -0.280842,-0.29678 -0.281226,-0.30116 -0.03954,-0.45099 0.243652,-0.15106 0.243632,-0.15187 -0.009,-0.49113 -0.139194,-0.18691 -0.224071,-0.36863 -0.188614,-0.40382 0.03545,-0.0352 0.497456,-0.38894 1.026666,-0.78609 l 0.96221,-0.72209 0.28826,0.35957 0.28826,0.35958 0.35822,-0.25322 c 0.19702,-0.13927 0.37165,-0.23368 0.38807,-0.2098 0.45675,0.66437 0.45817,0.68152 0.0783,0.95007 l -0.36149,0.25553 0.97897,1.45064 c 0.53844,0.79786 1.05861,1.48098 1.15594,1.51806 0.0973,0.0371 0.31041,-0.0194 0.47351,-0.12548 0.28532,-0.1856 0.30653,-0.17898 0.56046,0.17504 0.14515,0.20237 0.24422,0.38022 0.22017,0.39523 -0.0241,0.015 -0.45012,0.29032 -0.94681,0.61181 -0.49769,0.32212 -1.09914,0.60972 -1.33984,0.64066 -0.38328,0.0493 -0.49006,-6e-4 -0.87214,-0.40715 z m 35.06079,-0.48033 -0.8111,-0.56055 0.39909,-0.61811 c 1.75115,-2.71215 2.67455,-4.0643 2.77556,-4.0643 0.17884,0 1.80389,1.1323 1.80459,1.2574 4.9e-4,0.0924 -2.83151,3.95439 -3.22307,4.39526 -0.10436,0.1175 -0.31323,0.0269 -0.94507,-0.4097 z m -30.01455,-2.21906 c -0.35259,-0.14125 -0.75593,-0.69944 -1.42887,-1.97748 -0.71852,-1.36457 -0.75834,-1.96553 -0.17668,-2.66606 0.58122,-0.700005 1.88658,-1.282415 2.87429,-1.282415 1.0448,0 1.43951,0.2215 1.79294,1.006175 0.52719,1.17047 0.5741,1.07245 -0.75882,1.58528 -0.65394,0.2516 -1.23779,0.50278 -1.29743,0.55819 -0.12861,0.11945 0.35593,1.36867 0.61302,1.58049 0.13524,0.11143 0.20882,0.11181 0.31978,0.002 0.11096,-0.11015 0.0958,-0.27825 -0.0661,-0.73057 -0.1156,-0.32313 -0.21018,-0.64269 -0.21018,-0.71015 0,-0.15592 1.76807,-0.80224 1.92731,-0.70453 0.24326,0.14925 0.41783,1.24676 0.26935,1.69339 -0.38538,1.15926 -2.65592,2.12782 -3.85864,1.64602 z m 0.84002,-3.69924 c 0.10332,-0.10257 -0.14065,-0.73636 -0.34977,-0.90866 -0.31165,-0.25676 -0.43888,0.0389 -0.23016,0.53477 0.1712,0.40675 0.39893,0.55357 0.57993,0.37389 z m 24.17763,3.11485 c -0.51919,-0.23285 -0.94398,-0.46151 -0.94398,-0.50813 0,-0.21695 2.55254,-6.222245 2.65985,-6.257755 0.12175,-0.0403 3.24963,1.3999 3.75664,1.7297 l 0.26782,0.17421 -0.30749,0.546165 c -0.16913,0.3004 -0.34887,0.54618 -0.39943,0.54618 -0.0506,0 -0.38844,-0.16225 -0.75085,-0.36056 -0.36241,-0.19832 -0.69893,-0.36156 -0.74781,-0.36276 -0.0957,-0.002 -0.58104,0.88544 -0.58104,1.0629 0,0.0591 0.20554,0.20038 0.45676,0.31405 0.90618,0.41003 0.9263,0.44834 0.56883,1.08328 -0.17358,0.30831 -0.35201,0.55886 -0.39654,0.55678 -0.0445,-0.002 -0.30018,-0.13783 -0.56815,-0.30168 -0.26796,-0.16385 -0.55524,-0.29818 -0.63838,-0.29852 -0.0832,-3.7e-4 -0.43942,0.56191 -0.79172,1.24944 l -0.64054,1.25007 z m -18.57449,-4.09344 c -0.35147,-1.507165 -0.62181,-2.757405 -0.60075,-2.778305 0.0211,-0.0209 0.47305,-0.12267 1.00444,-0.22615 0.5314,-0.10349 1.0895,-0.2142 1.24023,-0.24603 0.18951,-0.04 0.27405,-0.001 0.27405,0.12581 0,0.24219 0.0346,0.23512 0.55041,-0.11236 0.24168,-0.16281 0.6728,-0.33077 0.95804,-0.37324 0.57886,-0.0862 1.43378,0.0983 1.64904,0.35576 0.20623,0.24668 0.34841,1.34357 0.44316,3.418875 l 0.0838,1.8357 -0.41105,0.0624 c -0.22608,0.0343 -0.71732,0.0919 -1.09166,0.12797 l -0.6806,0.0656 -0.27452,-2.02415 c -0.36811,-2.714155 -0.3622,-2.689185 -0.63667,-2.689185 -0.12771,0 -0.26522,0.0854 -0.30558,0.18984 -0.0404,0.10442 0.0712,1.12467 0.24789,2.267225 0.1767,1.14256 0.32106,2.13796 0.32081,2.21199 -3.7e-4,0.10157 -1.69907,0.53594 -2.07111,0.5296 -0.0335,-6e-4 -0.34847,-1.23417 -0.69994,-2.74134 z m 27.03388,1.92924 -0.98768,-0.67694 0.25042,-0.34913 c 0.24559,-0.3424 0.25663,-0.34517 0.57291,-0.14362 0.90979,0.57973 1.5987,1.08678 1.59999,1.1776 8.5e-4,0.056 -0.0997,0.22946 -0.22326,0.38544 l -0.22471,0.28359 z m -16.09461,0.43308 c -0.3641,-0.0595 -0.68518,-0.13127 -0.71351,-0.15939 -0.0936,-0.093 1.6164,-3.243835 2.56198,-4.720705 1.35651,-2.11869 1.07837,-1.91175 2.25447,-1.67735 0.55268,0.11015 1.00487,0.25284 1.00487,0.31707 0,0.0642 -0.26544,0.45099 -0.58987,0.85946 -0.89039,1.12103 -1.93308,2.638305 -2.82951,4.117405 -0.44276,0.73055 -0.85483,1.33806 -0.91572,1.35002 -0.0609,0.012 -0.4086,-0.027 -0.77271,-0.0865 z M 84.057104,128.32872 c -0.03408,-0.14964 -0.230098,-0.89782 -0.435605,-1.66263 -0.800057,-2.9775 -1.357878,-6.85928 -1.357878,-9.44925 v -0.70795 h -4.567601 -4.5676 v 6.04595 6.04595 h 5.49532 5.495319 z m 86.513466,-17.86578 v -6.04595 h -5.53619 -5.5362 l 0.17987,0.57437 c 0.94697,3.02397 1.5014,6.27873 1.69932,9.97581 l 0.0825,1.54172 h 4.55534 4.55533 z m -85.86697,-7.46675 0.541851,-1.42079 0.03443,-4.625157 0.03443,-4.62515 2.646397,-0.004 2.646397,-0.004 0.852619,-1.04284 c 1.094633,-1.33885 3.621133,-3.84701 4.969766,-4.93371 l 1.050461,-0.84643 0.0045,-2.627195 0.0045,-2.62719 4.658949,-0.0342 4.65896,-0.0342 1.43118,-0.53792 1.43117,-0.53792 v -5.41618 -5.41618 h -6.09013 -6.090136 v 5.98549 5.98549 h -6.090122 -6.090134 v -5.98549 -5.98549 H 79.218554 73.12842 v 5.98549 5.98549 h 6.090134 6.090134 v 6.045935 6.04595 H 79.218554 73.12842 v 6.04595 6.045947 h 5.516665 5.516665 z m 79.77832,-10.671097 h 6.08865 v -6.04595 -6.045935 h -6.09013 -6.09014 v -5.98549 -5.98549 h -6.09013 -6.09013 v 5.98549 5.98549 l -4.47625,0.002 -4.47625,0.002 1.70524,0.82593 c 2.24183,1.08582 4.20371,2.23626 5.81991,3.41276 0.72227,0.525765 1.33889,0.955945 1.37028,0.955945 0.0314,0 0.0571,-1.169885 0.0571,-2.599755 v -2.59976 h 6.09013 6.09013 v 6.045945 6.04595 h -2.61875 c -1.44032,0 -2.61876,0.0313 -2.61876,0.0696 0,0.0383 0.23666,0.37838 0.52591,0.75574 0.79298,1.03452 1.6814,2.36886 2.42931,3.64861 0.68813,1.17746 2.13759,4.069057 2.18941,4.367767 0.0159,0.0917 0.044,-1.860207 0.0624,-4.337537 l 0.0335,-4.50423 H 164.482 Z M 134.02976,73.643118 v -5.38089 h -6.09014 -6.09013 v 4.474 4.474 h 0.71313 c 1.74496,0 4.96695,0.35767 7.20404,0.79971 1.12493,0.22229 3.15618,0.72832 3.54726,0.88371 0.76647,0.30454 0.71584,0.67592 0.71584,-5.25053 z"
       id="path3724"
       inkscape:connector-curvature="0" />
  </g>
</svg>
